<svg width="279" height="25" viewBox="0 0 279 25" fill="none" xmlns="http://www.w3.org/2000/svg">
<path d="M0.48 19V18.088C0.784 17.912 1.104 17.76 1.44 17.632C1.792 17.504 2.128 17.424 2.448 17.392V3.808C2.128 3.744 1.792 3.656 1.44 3.544C1.088 3.416 0.768 3.272 0.48 3.112V2.2H4.344C4.952 2.2 5.528 2.176 6.072 2.128C6.616 2.08 7.24 2.056 7.944 2.056C8.712 2.056 9.456 2.112 10.176 2.224C10.896 2.336 11.536 2.536 12.096 2.824C12.656 3.112 13.104 3.52 13.44 4.048C13.776 4.56 13.944 5.224 13.944 6.04C13.944 6.552 13.848 7.032 13.656 7.48C13.48 7.912 13.224 8.296 12.888 8.632C12.568 8.968 12.184 9.248 11.736 9.472C11.304 9.696 10.832 9.856 10.32 9.952V10.048C10.832 10.112 11.344 10.232 11.856 10.408C12.384 10.584 12.856 10.84 13.272 11.176C13.688 11.512 14.024 11.936 14.28 12.448C14.552 12.944 14.688 13.536 14.688 14.224C14.688 15.088 14.496 15.832 14.112 16.456C13.728 17.08 13.208 17.592 12.552 17.992C11.912 18.392 11.176 18.688 10.344 18.88C9.512 19.056 8.648 19.144 7.752 19.144C7.416 19.144 7.048 19.136 6.648 19.12C6.248 19.104 5.848 19.088 5.448 19.072C5.048 19.056 4.656 19.04 4.272 19.024C3.904 19.008 3.592 19 3.336 19H0.48ZM7.728 17.584C8.736 17.584 9.528 17.288 10.104 16.696C10.68 16.088 10.968 15.288 10.968 14.296C10.968 13.688 10.872 13.192 10.68 12.808C10.488 12.408 10.224 12.096 9.888 11.872C9.552 11.632 9.152 11.472 8.688 11.392C8.224 11.296 7.72 11.248 7.176 11.248H5.904V17.416C6.128 17.464 6.36 17.504 6.6 17.536C6.856 17.568 7.232 17.584 7.728 17.584ZM6.672 9.688C6.944 9.688 7.216 9.68 7.488 9.664C7.76 9.632 8.016 9.6 8.256 9.568C8.88 9.312 9.384 8.92 9.768 8.392C10.152 7.848 10.344 7.232 10.344 6.544C10.344 5.536 10.08 4.8 9.552 4.336C9.024 3.856 8.344 3.616 7.512 3.616C7.16 3.616 6.856 3.624 6.6 3.64C6.344 3.656 6.112 3.68 5.904 3.712V9.688H6.672ZM28.6899 2.2C28.6579 2.92 28.6019 3.664 28.5219 4.432C28.4419 5.2 28.3379 5.92 28.2099 6.592H27.2259L26.1219 3.76H21.6339V9.64H24.5619L25.6179 7.792H26.3859C26.4659 8.576 26.5059 9.448 26.5059 10.408C26.5059 11.368 26.4659 12.264 26.3859 13.096H25.6179L24.5619 11.2H21.6339V17.44H26.3139L27.5859 14.392H28.5699C28.6339 14.696 28.6979 15.04 28.7619 15.424C28.8259 15.808 28.8739 16.208 28.9059 16.624C28.9539 17.024 28.9859 17.432 29.0019 17.848C29.0339 18.264 29.0499 18.648 29.0499 19H16.0659V18.088C16.3379 17.944 16.6419 17.808 16.9779 17.68C17.3139 17.552 17.6659 17.456 18.0339 17.392V3.808C17.7139 3.744 17.3699 3.656 17.0019 3.544C16.6499 3.416 16.3379 3.272 16.0659 3.112V2.2H28.6899ZM33.8383 17.008C34.0143 17.184 34.2623 17.352 34.5823 17.512C34.9023 17.656 35.3263 17.728 35.8543 17.728C36.7343 17.728 37.4623 17.504 38.0383 17.056C38.6303 16.592 38.9263 15.952 38.9263 15.136C38.9263 14.544 38.7343 14.048 38.3503 13.648C37.9823 13.248 37.5103 12.88 36.9343 12.544C36.3583 12.208 35.7423 11.88 35.0863 11.56C34.4303 11.224 33.8143 10.832 33.2383 10.384C32.6623 9.936 32.1823 9.408 31.7983 8.8C31.4303 8.176 31.2463 7.408 31.2463 6.496C31.2463 5.712 31.3903 5.032 31.6783 4.456C31.9663 3.88 32.3583 3.408 32.8543 3.04C33.3663 2.656 33.9663 2.376 34.6543 2.2C35.3423 2.008 36.0863 1.912 36.8863 1.912C37.8623 1.912 38.7663 1.984 39.5983 2.128C40.4463 2.256 41.2063 2.464 41.8783 2.752C41.8623 3.072 41.8303 3.44 41.7823 3.856C41.7503 4.272 41.7023 4.688 41.6383 5.104C41.5743 5.504 41.5023 5.888 41.4223 6.256C41.3583 6.608 41.2943 6.904 41.2303 7.144H40.2463L39.1423 3.856C38.9503 3.76 38.6623 3.672 38.2783 3.592C37.9103 3.512 37.5263 3.472 37.1263 3.472C36.4543 3.472 35.8863 3.648 35.4223 4C34.9583 4.352 34.7263 4.864 34.7263 5.536C34.7263 6.144 34.9183 6.664 35.3023 7.096C35.6863 7.512 36.1663 7.896 36.7423 8.248C37.3183 8.6 37.9423 8.952 38.6143 9.304C39.3023 9.64 39.9343 10.032 40.5103 10.48C41.0863 10.928 41.5663 11.456 41.9503 12.064C42.3343 12.656 42.5263 13.392 42.5263 14.272C42.5263 15.872 41.9823 17.112 40.8943 17.992C39.8223 18.856 38.2383 19.288 36.1423 19.288C35.6303 19.288 35.1103 19.256 34.5823 19.192C34.0703 19.128 33.5823 19.04 33.1183 18.928C32.6543 18.816 32.2383 18.696 31.8703 18.568C31.5183 18.44 31.2543 18.304 31.0783 18.16C31.0943 17.792 31.1343 17.4 31.1983 16.984C31.2623 16.552 31.3263 16.128 31.3903 15.712C31.4703 15.28 31.5503 14.872 31.6303 14.488C31.7103 14.104 31.7903 13.768 31.8703 13.48H32.8543L33.8383 17.008ZM55.5731 19H47.3171V18.088C47.6371 17.96 47.9971 17.832 48.3971 17.704C48.8131 17.56 49.2291 17.456 49.6451 17.392V3.76H46.8611L45.3251 7.864H44.3411C44.2771 7.544 44.2131 7.136 44.1491 6.64C44.0851 6.144 44.0291 5.632 43.9811 5.104C43.9331 4.576 43.8931 4.056 43.8611 3.544C43.8291 3.016 43.8131 2.568 43.8131 2.2H59.1011C59.1011 2.584 59.0851 3.032 59.0531 3.544C59.0211 4.056 58.9811 4.576 58.9331 5.104C58.8851 5.632 58.8291 6.144 58.7651 6.64C58.7011 7.12 58.6371 7.528 58.5731 7.864H57.5651L56.0291 3.76H53.2451V17.392C53.6611 17.472 54.0691 17.568 54.4691 17.68C54.8851 17.792 55.2531 17.928 55.5731 18.088V19Z" fill="#fff"/>
<path d="M81.2769 19H74.1009V18.088C74.4209 17.928 74.7329 17.792 75.0369 17.68C75.3409 17.568 75.6689 17.472 76.0209 17.392V7.36L76.1409 4.552H75.9489L75.1569 7.12L70.5249 19H69.4209L64.8129 7.216L63.9489 4.408H63.7329L63.7569 7.456V17.296C64.0609 17.36 64.3969 17.464 64.7649 17.608C65.1329 17.752 65.4769 17.912 65.7969 18.088V19H59.9409V18.088C60.1969 17.96 60.5089 17.808 60.8769 17.632C61.2609 17.456 61.6209 17.336 61.9569 17.272V3.808C61.6369 3.744 61.2929 3.656 60.9249 3.544C60.5729 3.432 60.2609 3.288 59.9889 3.112V2.2H66.4929L70.1649 11.968L70.8609 14.272H70.8849L71.6049 11.92L75.3489 2.2H81.3009V3.112C81.0289 3.272 80.7329 3.416 80.4129 3.544C80.1089 3.656 79.7969 3.744 79.4769 3.808V17.416C79.8129 17.48 80.1329 17.576 80.4369 17.704C80.7569 17.832 81.0369 17.96 81.2769 18.088V19ZM82.5174 13C82.5174 12.024 82.6614 11.152 82.9494 10.384C83.2534 9.6 83.6774 8.936 84.2214 8.392C84.7814 7.848 85.4534 7.432 86.2374 7.144C87.0214 6.856 87.9094 6.712 88.9014 6.712C90.0214 6.712 90.9814 6.872 91.7814 7.192C92.5974 7.496 93.2614 7.928 93.7734 8.488C94.3014 9.032 94.6854 9.696 94.9254 10.48C95.1654 11.248 95.2854 12.088 95.2854 13C95.2854 13.976 95.1414 14.856 94.8534 15.64C94.5654 16.408 94.1414 17.064 93.5814 17.608C93.0374 18.152 92.3654 18.568 91.5654 18.856C90.7814 19.144 89.8934 19.288 88.9014 19.288C87.8134 19.288 86.8694 19.136 86.0694 18.832C85.2694 18.512 84.6054 18.08 84.0774 17.536C83.5494 16.976 83.1574 16.312 82.9014 15.544C82.6454 14.76 82.5174 13.912 82.5174 13ZM86.2374 13C86.2374 13.72 86.2774 14.384 86.3574 14.992C86.4534 15.584 86.6134 16.088 86.8374 16.504C87.0614 16.92 87.3654 17.248 87.7494 17.488C88.1334 17.712 88.6294 17.824 89.2374 17.824C89.5894 17.824 89.9094 17.744 90.1974 17.584C90.4854 17.408 90.7334 17.136 90.9414 16.768C91.1494 16.384 91.3014 15.888 91.3974 15.28C91.5094 14.656 91.5654 13.896 91.5654 13C91.5654 12.264 91.5174 11.6 91.4214 11.008C91.3414 10.416 91.1894 9.912 90.9654 9.496C90.7574 9.08 90.4694 8.76 90.1014 8.536C89.7334 8.296 89.2694 8.176 88.7094 8.176C88.2934 8.176 87.9334 8.264 87.6294 8.44C87.3254 8.6 87.0694 8.872 86.8614 9.256C86.6534 9.624 86.4934 10.12 86.3814 10.744C86.2854 11.352 86.2374 12.104 86.2374 13ZM102.983 9.76C102.791 9.856 102.567 10.016 102.311 10.24C102.055 10.464 101.823 10.832 101.615 11.344V17.488C101.935 17.52 102.255 17.584 102.575 17.68C102.895 17.76 103.215 17.888 103.535 18.064V19H96.5754V18.064C96.8634 17.904 97.1354 17.784 97.3914 17.704C97.6474 17.624 97.9034 17.552 98.1594 17.488V8.704L96.5754 8.512V7.576C96.8314 7.464 97.1434 7.36 97.5114 7.264C97.8954 7.168 98.2874 7.088 98.6874 7.024C99.0874 6.944 99.4714 6.88 99.8394 6.832C100.223 6.784 100.543 6.744 100.799 6.712H101.615V9.904H101.711C101.839 9.552 102.023 9.184 102.263 8.8C102.519 8.416 102.815 8.064 103.151 7.744C103.487 7.424 103.855 7.168 104.255 6.976C104.655 6.784 105.071 6.696 105.503 6.712C105.679 6.936 105.831 7.256 105.959 7.672C106.087 8.072 106.191 8.456 106.271 8.824V9.76H102.983ZM106.551 7.576C107.159 7.192 107.799 6.92 108.471 6.76V4.816C108.567 4.72 108.727 4.632 108.951 4.552C109.191 4.456 109.439 4.376 109.695 4.312C109.967 4.232 110.231 4.16 110.487 4.096C110.743 4.032 110.951 3.984 111.111 3.952H111.927V7H115.095V8.512H111.927V14.728C111.927 15.72 112.047 16.408 112.287 16.792C112.543 17.176 112.959 17.368 113.535 17.368C113.823 17.368 114.143 17.352 114.495 17.32C114.863 17.272 115.199 17.192 115.503 17.08L115.671 17.872C115.527 18.016 115.311 18.168 115.023 18.328C114.751 18.488 114.431 18.64 114.063 18.784C113.711 18.928 113.319 19.048 112.887 19.144C112.471 19.24 112.031 19.288 111.567 19.288C110.527 19.288 109.751 19.016 109.239 18.472C108.727 17.928 108.471 17.048 108.471 15.832V8.512H106.551V7.576ZM122.281 6.712C123.321 6.712 124.185 6.824 124.873 7.048C125.561 7.256 126.081 7.52 126.433 7.84C127.185 7.024 128.049 6.456 129.025 6.136C129.137 6.216 129.249 6.336 129.361 6.496C129.473 6.64 129.569 6.8 129.649 6.976C129.729 7.152 129.793 7.328 129.841 7.504C129.889 7.68 129.913 7.824 129.913 7.936L129.601 8.512H127.081C127.257 8.736 127.417 9.032 127.561 9.4C127.721 9.752 127.801 10.176 127.801 10.672C127.801 11.2 127.689 11.696 127.465 12.16C127.241 12.624 126.897 13.04 126.433 13.408C125.985 13.76 125.409 14.04 124.705 14.248C124.017 14.456 123.209 14.56 122.281 14.56C122.009 14.56 121.761 14.56 121.537 14.56C121.329 14.544 121.145 14.52 120.985 14.488C120.921 14.584 120.849 14.704 120.769 14.848C120.705 14.976 120.673 15.104 120.673 15.232C120.673 15.504 120.865 15.72 121.249 15.88C121.633 16.04 122.121 16.184 122.713 16.312C123.305 16.44 123.937 16.584 124.609 16.744C125.297 16.904 125.937 17.12 126.529 17.392C127.121 17.648 127.617 17.992 128.017 18.424C128.417 18.84 128.625 19.384 128.641 20.056C128.657 20.696 128.497 21.264 128.161 21.76C127.825 22.256 127.361 22.672 126.769 23.008C126.193 23.36 125.505 23.624 124.705 23.8C123.921 23.992 123.081 24.088 122.185 24.088C121.129 24.088 120.225 24 119.473 23.824C118.737 23.664 118.137 23.44 117.673 23.152C117.209 22.864 116.865 22.536 116.641 22.168C116.433 21.8 116.329 21.416 116.329 21.016C116.329 20.568 116.417 20.184 116.593 19.864C116.769 19.544 117.017 19.264 117.337 19.024C117.657 18.784 118.025 18.584 118.441 18.424C118.873 18.264 119.345 18.12 119.857 17.992C119.617 17.928 119.385 17.848 119.161 17.752C118.937 17.656 118.737 17.544 118.561 17.416C118.385 17.272 118.241 17.112 118.129 16.936C118.017 16.744 117.961 16.528 117.961 16.288C117.961 16.08 118.025 15.88 118.153 15.688C118.281 15.48 118.449 15.296 118.657 15.136C118.865 14.96 119.089 14.808 119.329 14.68C119.569 14.536 119.809 14.416 120.049 14.32C119.041 14.096 118.241 13.664 117.649 13.024C117.057 12.368 116.761 11.536 116.761 10.528C116.761 9.328 117.257 8.392 118.249 7.72C119.241 7.048 120.585 6.712 122.281 6.712ZM125.305 20.824C125.305 20.392 125.169 20.04 124.897 19.768C124.641 19.512 124.305 19.296 123.889 19.12C123.473 18.96 123.001 18.824 122.473 18.712C121.961 18.584 121.449 18.44 120.937 18.28C120.521 18.6 120.225 18.92 120.049 19.24C119.873 19.56 119.785 19.944 119.785 20.392C119.785 21.128 120.033 21.696 120.529 22.096C121.041 22.512 121.753 22.72 122.665 22.72C123.561 22.72 124.225 22.528 124.657 22.144C125.089 21.776 125.305 21.336 125.305 20.824ZM120.217 10.648C120.217 11.48 120.353 12.112 120.625 12.544C120.913 12.976 121.465 13.192 122.281 13.192C123.065 13.192 123.601 12.976 123.889 12.544C124.193 12.096 124.345 11.464 124.345 10.648C124.345 9.784 124.193 9.144 123.889 8.728C123.585 8.296 123.049 8.08 122.281 8.08C121.481 8.08 120.937 8.288 120.649 8.704C120.361 9.12 120.217 9.768 120.217 10.648ZM140.772 15.52C140.772 15.872 140.772 16.176 140.772 16.432C140.788 16.688 140.812 16.96 140.844 17.248L142.5 17.488V18.328C142.308 18.424 142.044 18.52 141.708 18.616C141.388 18.712 141.044 18.808 140.676 18.904C140.324 18.984 139.972 19.048 139.62 19.096C139.268 19.16 138.956 19.208 138.684 19.24H137.868C137.708 18.872 137.612 18.504 137.58 18.136C137.548 17.768 137.524 17.32 137.508 16.792H137.388C137.308 17.112 137.172 17.424 136.98 17.728C136.788 18.016 136.54 18.28 136.236 18.52C135.948 18.744 135.604 18.928 135.204 19.072C134.804 19.216 134.356 19.288 133.86 19.288C133.332 19.288 132.844 19.208 132.396 19.048C131.948 18.888 131.556 18.664 131.22 18.376C130.884 18.088 130.62 17.744 130.428 17.344C130.236 16.928 130.14 16.464 130.14 15.952C130.14 15.232 130.276 14.64 130.548 14.176C130.82 13.712 131.244 13.336 131.82 13.048C132.412 12.744 133.164 12.52 134.076 12.376C135.004 12.232 136.124 12.128 137.436 12.064C137.564 10.688 137.508 9.68 137.268 9.04C137.028 8.4 136.508 8.08 135.708 8.08C135.212 8.08 134.756 8.16 134.34 8.32L133.212 11.2H132.156C132.028 11.008 131.9 10.792 131.772 10.552C131.66 10.296 131.548 10.032 131.436 9.76C131.34 9.472 131.252 9.184 131.172 8.896C131.108 8.608 131.06 8.328 131.028 8.056C131.636 7.64 132.42 7.312 133.38 7.072C134.34 6.832 135.356 6.712 136.428 6.712C137.34 6.712 138.084 6.816 138.66 7.024C139.236 7.216 139.684 7.488 140.004 7.84C140.34 8.176 140.572 8.576 140.7 9.04C140.828 9.504 140.892 10 140.892 10.528C140.892 11.488 140.868 12.36 140.82 13.144C140.788 13.912 140.772 14.704 140.772 15.52ZM135.372 17.368C135.708 17.368 135.996 17.304 136.236 17.176C136.476 17.048 136.676 16.896 136.836 16.72C137.012 16.544 137.14 16.352 137.22 16.144C137.316 15.936 137.388 15.752 137.436 15.592V13.192C136.684 13.208 136.068 13.256 135.588 13.336C135.108 13.416 134.732 13.552 134.46 13.744C134.188 13.92 133.996 14.152 133.884 14.44C133.788 14.712 133.74 15.048 133.74 15.448C133.74 16.056 133.884 16.528 134.172 16.864C134.46 17.2 134.86 17.368 135.372 17.368ZM149.188 6.712C150.228 6.712 151.092 6.824 151.78 7.048C152.468 7.256 152.988 7.52 153.34 7.84C154.092 7.024 154.956 6.456 155.932 6.136C156.044 6.216 156.156 6.336 156.268 6.496C156.38 6.64 156.476 6.8 156.556 6.976C156.636 7.152 156.7 7.328 156.748 7.504C156.796 7.68 156.82 7.824 156.82 7.936L156.508 8.512H153.988C154.164 8.736 154.324 9.032 154.468 9.4C154.628 9.752 154.708 10.176 154.708 10.672C154.708 11.2 154.596 11.696 154.372 12.16C154.148 12.624 153.804 13.04 153.34 13.408C152.892 13.76 152.316 14.04 151.612 14.248C150.924 14.456 150.116 14.56 149.188 14.56C148.916 14.56 148.668 14.56 148.444 14.56C148.236 14.544 148.052 14.52 147.892 14.488C147.828 14.584 147.756 14.704 147.676 14.848C147.612 14.976 147.58 15.104 147.58 15.232C147.58 15.504 147.772 15.72 148.156 15.88C148.54 16.04 149.028 16.184 149.62 16.312C150.212 16.44 150.844 16.584 151.516 16.744C152.204 16.904 152.844 17.12 153.436 17.392C154.028 17.648 154.524 17.992 154.924 18.424C155.324 18.84 155.532 19.384 155.548 20.056C155.564 20.696 155.404 21.264 155.068 21.76C154.732 22.256 154.268 22.672 153.676 23.008C153.1 23.36 152.412 23.624 151.612 23.8C150.828 23.992 149.988 24.088 149.092 24.088C148.036 24.088 147.132 24 146.38 23.824C145.644 23.664 145.044 23.44 144.58 23.152C144.116 22.864 143.772 22.536 143.548 22.168C143.34 21.8 143.236 21.416 143.236 21.016C143.236 20.568 143.324 20.184 143.5 19.864C143.676 19.544 143.924 19.264 144.244 19.024C144.564 18.784 144.932 18.584 145.348 18.424C145.78 18.264 146.252 18.12 146.764 17.992C146.524 17.928 146.292 17.848 146.068 17.752C145.844 17.656 145.644 17.544 145.468 17.416C145.292 17.272 145.148 17.112 145.036 16.936C144.924 16.744 144.868 16.528 144.868 16.288C144.868 16.08 144.932 15.88 145.06 15.688C145.188 15.48 145.356 15.296 145.564 15.136C145.772 14.96 145.996 14.808 146.236 14.68C146.476 14.536 146.716 14.416 146.956 14.32C145.948 14.096 145.148 13.664 144.556 13.024C143.964 12.368 143.668 11.536 143.668 10.528C143.668 9.328 144.164 8.392 145.156 7.72C146.148 7.048 147.492 6.712 149.188 6.712ZM152.212 20.824C152.212 20.392 152.076 20.04 151.804 19.768C151.548 19.512 151.212 19.296 150.796 19.12C150.38 18.96 149.908 18.824 149.38 18.712C148.868 18.584 148.356 18.44 147.844 18.28C147.428 18.6 147.132 18.92 146.956 19.24C146.78 19.56 146.692 19.944 146.692 20.392C146.692 21.128 146.94 21.696 147.436 22.096C147.948 22.512 148.66 22.72 149.572 22.72C150.468 22.72 151.132 22.528 151.564 22.144C151.996 21.776 152.212 21.336 152.212 20.824ZM147.124 10.648C147.124 11.48 147.26 12.112 147.532 12.544C147.82 12.976 148.372 13.192 149.188 13.192C149.972 13.192 150.508 12.976 150.796 12.544C151.1 12.096 151.252 11.464 151.252 10.648C151.252 9.784 151.1 9.144 150.796 8.728C150.492 8.296 149.956 8.08 149.188 8.08C148.388 8.08 147.844 8.288 147.556 8.704C147.268 9.12 147.124 9.768 147.124 10.648ZM168.062 16.984C167.934 17.256 167.726 17.536 167.438 17.824C167.166 18.096 166.822 18.344 166.406 18.568C166.006 18.776 165.534 18.944 164.99 19.072C164.462 19.216 163.886 19.288 163.262 19.288C162.27 19.288 161.39 19.144 160.622 18.856C159.854 18.552 159.214 18.128 158.702 17.584C158.19 17.024 157.798 16.36 157.526 15.592C157.27 14.824 157.142 13.96 157.142 13C157.142 10.952 157.678 9.392 158.75 8.32C159.822 7.248 161.31 6.712 163.214 6.712C164.03 6.712 164.79 6.824 165.494 7.048C166.214 7.272 166.806 7.64 167.27 8.152C167.75 8.664 168.078 9.336 168.254 10.168C168.446 11 168.438 12.016 168.23 13.216H160.862C160.878 14.48 161.198 15.488 161.822 16.24C162.462 16.992 163.398 17.368 164.63 17.368C165.158 17.368 165.702 17.288 166.262 17.128C166.838 16.968 167.286 16.76 167.606 16.504L168.062 16.984ZM163.118 8.08C162.798 8.08 162.51 8.136 162.254 8.248C162.014 8.36 161.798 8.568 161.606 8.872C161.43 9.16 161.286 9.56 161.174 10.072C161.062 10.568 160.982 11.2 160.934 11.968H164.798C164.91 10.72 164.838 9.76 164.582 9.088C164.326 8.416 163.838 8.08 163.118 8.08ZM169.769 19V18.088C170.073 17.912 170.393 17.76 170.729 17.632C171.081 17.504 171.417 17.424 171.737 17.392V3.808C171.417 3.744 171.081 3.656 170.729 3.544C170.377 3.416 170.057 3.272 169.769 3.112V2.2H173.633C174.241 2.2 174.817 2.176 175.361 2.128C175.905 2.08 176.529 2.056 177.233 2.056C178.001 2.056 178.745 2.112 179.465 2.224C180.185 2.336 180.825 2.536 181.385 2.824C181.945 3.112 182.393 3.52 182.729 4.048C183.065 4.56 183.233 5.224 183.233 6.04C183.233 6.552 183.137 7.032 182.945 7.48C182.769 7.912 182.513 8.296 182.177 8.632C181.857 8.968 181.473 9.248 181.025 9.472C180.593 9.696 180.121 9.856 179.609 9.952V10.048C180.121 10.112 180.633 10.232 181.145 10.408C181.673 10.584 182.145 10.84 182.561 11.176C182.977 11.512 183.313 11.936 183.569 12.448C183.841 12.944 183.977 13.536 183.977 14.224C183.977 15.088 183.785 15.832 183.401 16.456C183.017 17.08 182.497 17.592 181.841 17.992C181.201 18.392 180.465 18.688 179.633 18.88C178.801 19.056 177.937 19.144 177.041 19.144C176.705 19.144 176.337 19.136 175.937 19.12C175.537 19.104 175.137 19.088 174.737 19.072C174.337 19.056 173.945 19.04 173.561 19.024C173.193 19.008 172.881 19 172.625 19H169.769ZM177.017 17.584C178.025 17.584 178.817 17.288 179.393 16.696C179.969 16.088 180.257 15.288 180.257 14.296C180.257 13.688 180.161 13.192 179.969 12.808C179.777 12.408 179.513 12.096 179.177 11.872C178.841 11.632 178.441 11.472 177.977 11.392C177.513 11.296 177.009 11.248 176.465 11.248H175.193V17.416C175.417 17.464 175.649 17.504 175.889 17.536C176.145 17.568 176.521 17.584 177.017 17.584ZM175.961 9.688C176.233 9.688 176.505 9.68 176.777 9.664C177.049 9.632 177.305 9.6 177.545 9.568C178.169 9.312 178.673 8.92 179.057 8.392C179.441 7.848 179.633 7.232 179.633 6.544C179.633 5.536 179.369 4.8 178.841 4.336C178.313 3.856 177.633 3.616 176.801 3.616C176.449 3.616 176.145 3.624 175.889 3.64C175.633 3.656 175.401 3.68 175.193 3.712V9.688H175.961ZM191.835 9.76C191.643 9.856 191.419 10.016 191.163 10.24C190.907 10.464 190.675 10.832 190.467 11.344V17.488C190.787 17.52 191.107 17.584 191.427 17.68C191.747 17.76 192.067 17.888 192.387 18.064V19H185.427V18.064C185.715 17.904 185.987 17.784 186.243 17.704C186.499 17.624 186.755 17.552 187.011 17.488V8.704L185.427 8.512V7.576C185.683 7.464 185.995 7.36 186.363 7.264C186.747 7.168 187.139 7.088 187.539 7.024C187.939 6.944 188.323 6.88 188.691 6.832C189.075 6.784 189.395 6.744 189.651 6.712H190.467V9.904H190.563C190.691 9.552 190.875 9.184 191.115 8.8C191.371 8.416 191.667 8.064 192.003 7.744C192.339 7.424 192.707 7.168 193.107 6.976C193.507 6.784 193.923 6.696 194.355 6.712C194.531 6.936 194.683 7.256 194.811 7.672C194.939 8.072 195.043 8.456 195.123 8.824V9.76H191.835ZM195.955 13C195.955 12.024 196.099 11.152 196.387 10.384C196.691 9.6 197.115 8.936 197.659 8.392C198.219 7.848 198.891 7.432 199.675 7.144C200.459 6.856 201.347 6.712 202.339 6.712C203.459 6.712 204.419 6.872 205.219 7.192C206.035 7.496 206.699 7.928 207.211 8.488C207.739 9.032 208.123 9.696 208.363 10.48C208.603 11.248 208.723 12.088 208.723 13C208.723 13.976 208.579 14.856 208.291 15.64C208.003 16.408 207.579 17.064 207.019 17.608C206.475 18.152 205.803 18.568 205.003 18.856C204.219 19.144 203.331 19.288 202.339 19.288C201.251 19.288 200.307 19.136 199.507 18.832C198.707 18.512 198.043 18.08 197.515 17.536C196.987 16.976 196.595 16.312 196.339 15.544C196.083 14.76 195.955 13.912 195.955 13ZM199.675 13C199.675 13.72 199.715 14.384 199.795 14.992C199.891 15.584 200.051 16.088 200.275 16.504C200.499 16.92 200.803 17.248 201.187 17.488C201.571 17.712 202.067 17.824 202.675 17.824C203.027 17.824 203.347 17.744 203.635 17.584C203.923 17.408 204.171 17.136 204.379 16.768C204.587 16.384 204.739 15.888 204.835 15.28C204.947 14.656 205.003 13.896 205.003 13C205.003 12.264 204.955 11.6 204.859 11.008C204.779 10.416 204.627 9.912 204.403 9.496C204.195 9.08 203.907 8.76 203.539 8.536C203.171 8.296 202.707 8.176 202.147 8.176C201.731 8.176 201.371 8.264 201.067 8.44C200.763 8.6 200.507 8.872 200.299 9.256C200.091 9.624 199.931 10.12 199.819 10.744C199.723 11.352 199.675 12.104 199.675 13ZM217.189 7H222.805V7.936C222.501 8.064 222.213 8.176 221.941 8.272C221.685 8.368 221.397 8.448 221.077 8.512C220.837 8.832 220.573 9.152 220.285 9.472C220.013 9.776 219.733 10.072 219.445 10.36C219.173 10.648 218.909 10.928 218.653 11.2C218.397 11.456 218.165 11.688 217.957 11.896C218.197 12.216 218.477 12.6 218.797 13.048C219.117 13.496 219.461 13.976 219.829 14.488C220.197 14.984 220.581 15.496 220.981 16.024C221.397 16.536 221.813 17.024 222.229 17.488L223.453 18.064V19H219.397L218.749 18.424C218.381 17.928 218.053 17.464 217.765 17.032C217.493 16.6 217.245 16.184 217.021 15.784C216.797 15.384 216.581 15 216.373 14.632C216.165 14.248 215.957 13.872 215.749 13.504L214.957 13.264V17.488C215.229 17.536 215.477 17.608 215.701 17.704C215.925 17.8 216.165 17.92 216.421 18.064V19H209.917V18.064C210.445 17.808 210.973 17.616 211.501 17.488V2.944L209.677 2.752V1.816C209.901 1.72 210.205 1.624 210.589 1.528C210.973 1.432 211.381 1.352 211.813 1.288C212.245 1.208 212.669 1.144 213.085 1.096C213.501 1.032 213.853 0.983999 214.141 0.951999H214.957V12.208H215.581C216.109 11.648 216.597 11.032 217.045 10.36C217.509 9.688 217.917 9.072 218.269 8.512C218.061 8.448 217.869 8.368 217.693 8.272C217.533 8.176 217.365 8.064 217.189 7.936V7ZM234.766 16.984C234.638 17.256 234.43 17.536 234.142 17.824C233.87 18.096 233.526 18.344 233.11 18.568C232.71 18.776 232.238 18.944 231.694 19.072C231.166 19.216 230.59 19.288 229.966 19.288C228.974 19.288 228.094 19.144 227.326 18.856C226.558 18.552 225.918 18.128 225.406 17.584C224.894 17.024 224.502 16.36 224.23 15.592C223.974 14.824 223.846 13.96 223.846 13C223.846 10.952 224.382 9.392 225.454 8.32C226.526 7.248 228.014 6.712 229.918 6.712C230.734 6.712 231.494 6.824 232.198 7.048C232.918 7.272 233.51 7.64 233.974 8.152C234.454 8.664 234.782 9.336 234.958 10.168C235.15 11 235.142 12.016 234.934 13.216H227.566C227.582 14.48 227.902 15.488 228.526 16.24C229.166 16.992 230.102 17.368 231.334 17.368C231.862 17.368 232.406 17.288 232.966 17.128C233.542 16.968 233.99 16.76 234.31 16.504L234.766 16.984ZM229.822 8.08C229.502 8.08 229.214 8.136 228.958 8.248C228.718 8.36 228.502 8.568 228.31 8.872C228.134 9.16 227.99 9.56 227.878 10.072C227.766 10.568 227.686 11.2 227.638 11.968H231.502C231.614 10.72 231.542 9.76 231.286 9.088C231.03 8.416 230.542 8.08 229.822 8.08ZM242.952 9.76C242.76 9.856 242.536 10.016 242.28 10.24C242.024 10.464 241.792 10.832 241.584 11.344V17.488C241.904 17.52 242.224 17.584 242.544 17.68C242.864 17.76 243.184 17.888 243.504 18.064V19H236.544V18.064C236.832 17.904 237.104 17.784 237.36 17.704C237.616 17.624 237.872 17.552 238.128 17.488V8.704L236.544 8.512V7.576C236.8 7.464 237.112 7.36 237.48 7.264C237.864 7.168 238.256 7.088 238.656 7.024C239.056 6.944 239.44 6.88 239.808 6.832C240.192 6.784 240.512 6.744 240.768 6.712H241.584V9.904H241.68C241.808 9.552 241.992 9.184 242.232 8.8C242.488 8.416 242.784 8.064 243.12 7.744C243.456 7.424 243.824 7.168 244.224 6.976C244.624 6.784 245.04 6.696 245.472 6.712C245.648 6.936 245.8 7.256 245.928 7.672C246.056 8.072 246.16 8.456 246.24 8.824V9.76H242.952Z" fill="#fff"/>
<path d="M247.84 17.296C247.84 16.72 248.024 16.256 248.392 15.904C248.76 15.552 249.248 15.376 249.856 15.376C250.464 15.376 250.96 15.552 251.344 15.904C251.728 16.256 251.92 16.72 251.92 17.296C251.92 17.872 251.728 18.336 251.344 18.688C250.96 19.024 250.464 19.192 249.856 19.192C249.248 19.192 248.76 19.024 248.392 18.688C248.024 18.336 247.84 17.872 247.84 17.296ZM264.374 17.056C264.262 17.376 264.078 17.672 263.822 17.944C263.566 18.2 263.254 18.432 262.886 18.64C262.534 18.848 262.126 19.008 261.662 19.12C261.214 19.232 260.742 19.288 260.246 19.288C259.19 19.288 258.278 19.144 257.51 18.856C256.758 18.552 256.134 18.128 255.638 17.584C255.142 17.024 254.774 16.36 254.534 15.592C254.294 14.808 254.174 13.944 254.174 13C254.174 10.968 254.726 9.416 255.83 8.344C256.95 7.256 258.534 6.712 260.582 6.712C261.366 6.712 262.086 6.8 262.742 6.976C263.398 7.136 263.942 7.328 264.374 7.552C264.342 7.824 264.294 8.128 264.23 8.464C264.182 8.784 264.118 9.112 264.038 9.448C263.974 9.768 263.894 10.088 263.798 10.408C263.702 10.712 263.606 10.968 263.51 11.176H262.334L261.326 8.32C261.214 8.24 261.094 8.184 260.966 8.152C260.838 8.104 260.646 8.08 260.39 8.08C259.974 8.08 259.614 8.16 259.31 8.32C259.006 8.464 258.742 8.72 258.518 9.088C258.31 9.456 258.15 9.944 258.038 10.552C257.942 11.16 257.894 11.912 257.894 12.808C257.894 13.464 257.966 14.072 258.11 14.632C258.254 15.176 258.47 15.656 258.758 16.072C259.062 16.472 259.438 16.792 259.886 17.032C260.334 17.256 260.862 17.368 261.47 17.368C262.03 17.368 262.518 17.288 262.934 17.128C263.35 16.968 263.702 16.776 263.99 16.552L264.374 17.056ZM276.335 15.52C276.335 15.872 276.335 16.176 276.335 16.432C276.351 16.688 276.375 16.96 276.407 17.248L278.063 17.488V18.328C277.871 18.424 277.607 18.52 277.271 18.616C276.951 18.712 276.607 18.808 276.239 18.904C275.887 18.984 275.535 19.048 275.183 19.096C274.831 19.16 274.519 19.208 274.247 19.24H273.431C273.271 18.872 273.175 18.504 273.143 18.136C273.111 17.768 273.087 17.32 273.071 16.792H272.951C272.871 17.112 272.735 17.424 272.543 17.728C272.351 18.016 272.103 18.28 271.799 18.52C271.511 18.744 271.167 18.928 270.767 19.072C270.367 19.216 269.919 19.288 269.423 19.288C268.895 19.288 268.407 19.208 267.959 19.048C267.511 18.888 267.119 18.664 266.783 18.376C266.447 18.088 266.183 17.744 265.991 17.344C265.799 16.928 265.703 16.464 265.703 15.952C265.703 15.232 265.839 14.64 266.111 14.176C266.383 13.712 266.807 13.336 267.383 13.048C267.975 12.744 268.727 12.52 269.639 12.376C270.567 12.232 271.687 12.128 272.999 12.064C273.127 10.688 273.071 9.68 272.831 9.04C272.591 8.4 272.071 8.08 271.271 8.08C270.775 8.08 270.319 8.16 269.903 8.32L268.775 11.2H267.719C267.591 11.008 267.463 10.792 267.335 10.552C267.223 10.296 267.111 10.032 266.999 9.76C266.903 9.472 266.815 9.184 266.735 8.896C266.671 8.608 266.623 8.328 266.591 8.056C267.199 7.64 267.983 7.312 268.943 7.072C269.903 6.832 270.919 6.712 271.991 6.712C272.903 6.712 273.647 6.816 274.223 7.024C274.799 7.216 275.247 7.488 275.567 7.84C275.903 8.176 276.135 8.576 276.263 9.04C276.391 9.504 276.455 10 276.455 10.528C276.455 11.488 276.431 12.36 276.383 13.144C276.351 13.912 276.335 14.704 276.335 15.52ZM270.935 17.368C271.271 17.368 271.559 17.304 271.799 17.176C272.039 17.048 272.239 16.896 272.399 16.72C272.575 16.544 272.703 16.352 272.783 16.144C272.879 15.936 272.951 15.752 272.999 15.592V13.192C272.247 13.208 271.631 13.256 271.151 13.336C270.671 13.416 270.295 13.552 270.023 13.744C269.751 13.92 269.559 14.152 269.447 14.44C269.351 14.712 269.303 15.048 269.303 15.448C269.303 16.056 269.447 16.528 269.735 16.864C270.023 17.2 270.423 17.368 270.935 17.368Z" fill="#fff"/>
</svg>
