<svg width="73" height="73" viewBox="0 0 73 73" fill="none" xmlns="http://www.w3.org/2000/svg">
<path d="M73 36.5C73 16.3744 56.6256 0 36.5 0C30.1902 0 24.0429 1.63426 18.5926 4.70968H14.129V0H7.06452V14.9379C2.44903 21.2253 0 28.6666 0 36.5C0 56.6268 16.3744 73 36.5 73C40.9848 73 45.3624 72.1935 49.5128 70.6087C51.8818 72.1146 54.6841 73 57.6935 73C61.3647 73 64.9158 71.6801 67.6922 69.2841L66.1533 67.5014C63.8044 69.529 60.8008 70.6452 57.6935 70.6452C50.5525 70.6452 44.7419 64.8346 44.7419 57.6935C44.7419 50.5525 50.5525 44.7419 57.6935 44.7419C64.8346 44.7419 70.6452 50.5525 70.6452 57.6935C70.6452 60.6783 69.6585 63.4841 67.7899 65.8071L69.6255 67.2836C71.8014 64.5767 73 61.1716 73 57.6935C73 54.6817 72.1134 51.8794 70.6063 49.5093C72.1899 45.3577 73 40.9848 73 36.5ZM18.8387 11.7742H21.1935V14.129V28.2581H18.8387V11.7742ZM14.129 7.06452H16.4839V9.41935V28.2581H14.129V7.06452ZM9.41935 2.35484H11.7742V4.70968V28.2581H9.41935V2.35484ZM35.3226 70.6157C17.4305 70.0046 2.99535 55.5695 2.38427 37.6774H35.3226V70.6157ZM35.3226 35.3226H2.40194C2.59385 29.5909 4.18573 24.1135 7.06452 19.2308V30.6129H11.7742H14.129H16.4839H18.8387H21.1935H23.5484H25.9032H28.2581H32.9677V18.8387H28.2581V14.129H23.5484V9.41935H18.8387V7.29058C23.8204 4.27168 29.4814 2.59621 35.3226 2.39605V35.3226ZM23.5484 28.2581V16.4839H25.9032V18.8387V28.2581H23.5484ZM28.2581 28.2581V21.1935H30.6129V28.2581H28.2581ZM70.6157 35.3226H60.5358L69.1946 26.6638C70.0258 29.4202 70.5133 32.3225 70.6157 35.3226ZM64.6827 17.2492L51.5321 30.3998L53.197 32.0647L65.972 19.2897C66.8857 20.8486 67.6781 22.4852 68.3398 24.1889L57.2061 35.3226H49.9391L51.4615 33.8002L49.7966 32.1353L46.6093 35.3226H39.3423L61.446 13.2189C62.621 14.4787 63.7054 15.8233 64.6827 17.2492ZM37.6774 2.38427C40.6775 2.48671 43.5798 2.97416 46.3362 3.80542L37.6774 12.4642V2.38427ZM37.6774 26.3907L51.9866 12.0815L50.3217 10.4166L37.6774 23.0609V15.7939L48.8111 4.66023C50.5148 5.32076 52.1514 6.11316 53.7103 7.02802L51.8135 8.92484L53.4784 10.5897L55.7508 8.31729C57.1767 9.29455 58.5213 10.3778 59.7811 11.554L37.6774 33.6577V26.3907ZM57.6935 42.3871C49.2538 42.3871 42.3871 49.2538 42.3871 57.6935C42.3871 62.1218 44.2886 66.1039 47.304 68.9014C44.2015 69.9364 40.9742 70.5074 37.6774 70.6181V37.6774H70.6181C70.5074 40.973 69.9316 44.198 68.8979 47.3005C66.1003 44.2863 62.1195 42.3871 57.6935 42.3871Z" fill="black"/>
<path d="M28.6082 42.7312L14.479 56.8604L16.1441 58.5255L30.2733 44.3963L28.6082 42.7312Z" fill="black"/>
<path d="M27.0806 51.8066C25.1331 51.8066 23.5483 53.3914 23.5483 55.3389C23.5483 57.2864 25.1331 58.8712 27.0806 58.8712C29.028 58.8712 30.6129 57.2864 30.6129 55.3389C30.6129 53.3914 29.028 51.8066 27.0806 51.8066ZM27.0806 56.5163C26.4318 56.5163 25.9032 55.9888 25.9032 55.3389C25.9032 54.689 26.4318 54.1615 27.0806 54.1615C27.7294 54.1615 28.258 54.689 28.258 55.3389C28.258 55.9888 27.7294 56.5163 27.0806 56.5163Z" fill="black"/>
<path d="M17.6614 42.3867C15.714 42.3867 14.1292 43.9715 14.1292 45.919C14.1292 47.8664 15.714 49.4512 17.6614 49.4512C19.6089 49.4512 21.1937 47.8664 21.1937 45.919C21.1937 43.9715 19.6089 42.3867 17.6614 42.3867ZM17.6614 47.0964C17.0127 47.0964 16.484 46.5689 16.484 45.919C16.484 45.269 17.0127 44.7416 17.6614 44.7416C18.3102 44.7416 18.8388 45.269 18.8388 45.919C18.8388 46.5689 18.3102 47.0964 17.6614 47.0964Z" fill="black"/>
<path d="M57.6936 56.516C56.3949 56.516 55.3387 55.4599 55.3387 54.1612C55.3387 52.8625 56.3949 51.8064 57.6936 51.8064C58.9923 51.8064 60.0484 52.8625 60.0484 54.1612H62.4032C62.4032 51.9724 60.8961 50.145 58.871 49.6187V47.0967H56.5161V49.6187C54.491 50.145 52.9839 51.9724 52.9839 54.1612C52.9839 56.7586 55.0962 58.8709 57.6936 58.8709C58.9923 58.8709 60.0484 59.927 60.0484 61.2257C60.0484 62.5244 58.9923 63.5806 57.6936 63.5806C56.3949 63.5806 55.3387 62.5244 55.3387 61.2257H52.9839C52.9839 63.4145 54.491 65.2419 56.5161 65.7682V68.2902H58.871V65.7682C60.8961 65.2419 62.4032 63.4145 62.4032 61.2257C62.4032 58.6283 60.291 56.516 57.6936 56.516Z" fill="black"/>
<path d="M68.2904 56.5166H65.9355V58.8714H68.2904V56.5166Z" fill="black"/>
<path d="M49.4515 56.5166H47.0967V58.8714H49.4515V56.5166Z" fill="black"/>
</svg>
