<svg width="75" height="75" viewBox="0 0 75 75" fill="none" xmlns="http://www.w3.org/2000/svg">
<path d="M74.0786 23.3754L49.2865 7.4242C48.7915 7.10574 48.1323 7.249 47.814 7.74368C47.4957 8.23851 47.6387 8.89769 48.1335 9.21614L72.5632 24.9341H66.8681L39.0586 7.04158C38.1119 6.4325 36.8883 6.43264 35.9414 7.04158L8.1319 24.9341H2.43687L37.4987 2.3737L42.4644 5.56853C42.9594 5.88684 43.6184 5.74387 43.9368 5.24905C44.2552 4.75422 44.1122 4.09504 43.6174 3.77658L38.6517 0.581751C37.9521 0.131604 37.0481 0.131604 36.3485 0.581751L0.921485 23.3754C0.167089 23.8608 -0.169825 24.7652 0.0831537 25.6259C0.336133 26.4867 1.10884 27.065 2.00591 27.065H7.37955V30.7374V33.9536C7.37955 34.8016 7.98102 35.5118 8.77965 35.6798V37.5549C8.77965 38.5276 9.57096 39.3189 10.5436 39.3189H10.6901V52.3724C10.6901 52.9609 11.1671 53.4378 11.7555 53.4378C12.3439 53.4378 12.8209 52.9609 12.8209 52.3724V38.2535C12.8209 37.6651 12.3439 37.1881 11.7555 37.1881H10.9106V35.7174H18.4564V37.1878H17.6115C17.0231 37.1878 16.5461 37.6648 16.5461 38.2532V61.7927C16.5461 62.3811 17.0231 62.8581 17.6115 62.8581H18.4564V64.457H10.9106V62.8581H11.7555C12.3439 62.8581 12.8209 62.3811 12.8209 61.7927V59.0696C12.8209 58.4811 12.3439 58.0042 11.7555 58.0042C11.1671 58.0042 10.6901 58.4811 10.6901 59.0696V60.7273H10.5436C9.57096 60.7273 8.77965 61.5185 8.77965 62.4912V64.3663C7.98087 64.5343 7.37955 65.2445 7.37955 66.0925V68.2432H3.60552C2.42779 68.2432 1.46963 69.2013 1.46963 70.3791V72.6201C1.46963 73.7979 2.42779 74.756 3.60552 74.756H71.3945C72.5723 74.756 73.5304 73.7979 73.5304 72.6201V70.3791C73.5304 69.2013 72.5723 68.2432 71.3945 68.2432H67.6205V66.0925C67.6205 65.2445 67.019 64.5343 66.2204 64.3663V62.4912C66.2204 61.5185 65.4291 60.7273 64.4564 60.7273H64.3099V39.3186H64.4564C65.4291 39.3186 66.2204 38.5273 66.2204 37.5546V35.6795C67.0192 35.5115 67.6205 34.8013 67.6205 33.9533V30.7371V27.0647H72.9941C73.8912 27.0647 74.6639 26.4864 74.9169 25.6257C75.1699 24.7652 74.833 23.8607 74.0786 23.3754ZM37.0943 8.83353C37.3408 8.67488 37.6592 8.67503 37.9058 8.83353L62.9302 24.9342H12.07L37.0943 8.83353ZM9.51032 27.0649H65.4896V29.6719H54.0781H43.7385H31.2615H20.9219H9.51032V27.0649ZM43.4039 64.3666V62.4914C43.4039 61.5188 42.6126 60.7276 41.64 60.7276H41.4935V39.3189H41.64C42.6126 39.3189 43.4039 38.5276 43.4039 37.5549V35.6798C44.2027 35.5118 44.804 34.8016 44.804 33.9536V31.8028H53.0127V33.9536C53.0127 34.8016 53.6142 35.5118 54.4128 35.6798V37.5549C54.4128 38.5276 55.2042 39.3189 56.1768 39.3189H56.3233V60.7276H56.1768C55.2042 60.7276 54.4128 61.5188 54.4128 62.4914V64.3666C53.6142 64.5346 53.0127 65.2448 53.0127 66.0928V68.2435H44.804V66.0928C44.804 65.2448 44.2026 64.5346 43.4039 64.3666ZM20.5872 64.3666V62.4914C20.5872 61.5188 19.7959 60.7276 18.8232 60.7276H18.6767V39.3189H18.8232C19.7959 39.3189 20.5872 38.5276 20.5872 37.5549V35.6798C21.3858 35.5118 21.9873 34.8016 21.9873 33.9536V31.8028H30.1961V33.9536C30.1961 34.8016 30.7976 35.5118 31.5963 35.6798V37.5549C31.5963 38.5276 32.3876 39.3189 33.3602 39.3189H33.5067V60.7276H33.3602C32.3876 60.7276 31.5963 61.5188 31.5963 62.4914V64.3666C30.7976 64.5346 30.1961 65.2448 30.1961 66.0928V68.2435H21.9873V66.0928C21.9873 65.2448 21.3858 64.5346 20.5872 64.3666ZM40.4281 62.8581H41.273V64.457H33.7272V62.8581H34.5721C35.1605 62.8581 35.6375 62.3811 35.6375 61.7927V38.2534C35.6375 37.6649 35.1605 37.1878 34.5721 37.1878H33.7272V35.7174H41.273V37.1878H40.4281C39.8397 37.1878 39.3627 37.6648 39.3627 38.2532V61.7927C39.3627 62.3811 39.8397 62.8581 40.4281 62.8581ZM32.6616 33.5867H32.6569H32.3269V31.8028H42.6731V33.5867H42.3384C42.3377 33.5867 42.3368 33.5868 42.3361 33.5868C42.3353 33.5868 42.3344 33.5867 42.3337 33.5867H32.6616ZM32.3269 66.5353C32.4309 66.5691 32.5417 66.588 32.6569 66.588H42.3336C42.4524 66.588 42.5663 66.5677 42.6731 66.5318V68.2433H32.3269V66.5353ZM9.84518 33.5867H9.51047V31.8028H19.8567V33.5867H19.8565H19.5218H9.84518ZM9.51032 66.5335C9.61564 66.5684 9.728 66.588 9.84504 66.588H19.5218C19.6389 66.588 19.7512 66.5684 19.8565 66.5335V68.2433H9.51032V66.5335ZM71.3996 70.3792L71.3967 72.6253C71.3967 72.6253 71.3961 72.6254 71.3945 72.6254L3.6004 72.6204L3.60552 70.3742L71.3996 70.3792ZM65.1519 66.5879C65.2701 66.5879 65.3834 66.5678 65.4897 66.5324V68.2433H55.1435V66.5346C55.248 66.5688 55.3593 66.5879 55.4753 66.5879H65.1519ZM57.3885 37.188H56.5436V35.7174H64.0895V37.1878H63.2445C62.6561 37.1878 62.1792 37.6648 62.1792 38.2532V61.7927C62.1792 62.3811 62.6561 62.8582 63.2445 62.8582H64.0895V64.4571H56.5436V62.8582H57.3885C57.977 62.8582 58.4539 62.3813 58.4539 61.7929V38.2534C58.4539 37.6649 57.977 37.188 57.3885 37.188ZM65.4899 33.5867H65.155C65.1546 33.5867 65.154 33.5868 65.1535 33.5868C65.1531 33.5868 65.1525 33.5867 65.1521 33.5867H55.4784H55.4754H55.1437V31.8028H65.4899V33.5867Z" fill="black"/>
<path d="M37.9508 16.577V13.2509C39.0978 13.3328 39.5237 13.8571 39.9169 13.8571C40.4085 13.8571 40.6379 13.2345 40.6379 12.9232C40.6379 12.1205 39.0649 11.7764 37.9508 11.7436V11.3012C37.9508 11.1045 37.7051 10.9243 37.4593 10.9243C37.1807 10.9243 36.9841 11.1046 36.9841 11.3012V11.7764C35.4276 11.9402 33.871 12.7595 33.871 14.8239C33.871 16.9211 35.5096 17.511 36.9841 18.0353V21.8853C35.3129 21.7544 34.8705 20.6074 34.3298 20.6074C33.9203 20.6074 33.5762 21.1481 33.5762 21.5414C33.5762 22.3443 34.9524 23.442 36.9841 23.4748V23.9828C36.9841 24.1796 37.1807 24.3597 37.4593 24.3597C37.705 24.3597 37.9508 24.1794 37.9508 23.9828V23.4258C39.7203 23.1801 40.9328 22.0659 40.9328 20.0506C40.9328 17.8223 39.3762 17.1013 37.9508 16.577ZM37.0826 16.2657C36.2141 15.938 35.5096 15.594 35.5096 14.66C35.5096 13.808 36.165 13.3984 37.0826 13.2837V16.2657ZM37.8526 21.8528V18.3956C38.6554 18.7397 39.2943 19.1985 39.2945 20.2308C39.2945 21.1646 38.7374 21.689 37.8526 21.8528Z" fill="black"/>
</svg>
