<svg width="58" height="78" viewBox="0 0 58 78" fill="none" xmlns="http://www.w3.org/2000/svg">
<path d="M24.4297 0C23.5882 0 22.9062 0.681976 22.9062 1.52344V4.57031H19.8594C14.4964 4.57031 10.0475 8.5497 9.306 13.7109H1.57812C0.736664 13.7109 0.0546875 14.3929 0.0546875 15.2344C0.0546875 19.3143 2.34163 22.9593 5.95325 24.757L9.19531 51.2797V57.1021L4.66606 76.1237C4.55835 76.5771 4.66368 77.055 4.9529 77.421C5.24211 77.787 5.68248 78 6.14844 78H17.5742C18.4157 78 19.0977 77.318 19.0977 76.4766C19.0977 75.6351 18.4157 74.9531 17.5742 74.9531H8.07713L11.922 58.8047H36.9373L40.7822 74.9531H31.2852C30.4437 74.9531 29.7617 75.6351 29.7617 76.4766C29.7617 77.318 30.4437 78 31.2852 78H42.7109C43.1769 78 43.6173 77.787 43.9065 77.421C44.1957 77.055 44.301 76.5771 44.1933 76.1237L39.6641 57.1021V51.2839L40.5674 44.1797H42.7109C51.1113 44.1797 57.9453 37.3456 57.9453 28.9453C57.9453 23.0652 53.1614 18.2812 47.2812 18.2812H43.8595L44.2225 15.4266C44.2772 14.9922 44.1433 14.5554 43.8541 14.2275C43.5649 13.899 43.1483 13.7109 42.7109 13.7109H39.5534C38.8119 8.5497 34.363 4.57031 29 4.57031H25.9531V1.52344C25.9531 0.681976 25.2711 0 24.4297 0V0ZM12.2422 55.7578V52.7109H36.6172V55.7578H12.2422ZM47.2812 21.3281C51.4814 21.3281 54.8984 24.7451 54.8984 28.9453C54.8984 35.6657 49.4313 41.1328 42.7109 41.1328H40.9542L43.4721 21.3281H47.2812ZM36.7987 49.6641H25.9531V43.5703H30.5234C31.3649 43.5703 32.0469 42.8883 32.0469 42.0469C32.0469 41.2054 31.3649 40.5234 30.5234 40.5234H18.3359C17.4945 40.5234 16.8125 41.2054 16.8125 42.0469C16.8125 42.8883 17.4945 43.5703 18.3359 43.5703H22.9062V49.6641H12.0672L8.87337 23.5335C8.80553 22.9801 8.44073 22.5076 7.92241 22.3023C5.47955 21.3341 3.75795 19.2417 3.25391 16.756H40.9816C40.7543 18.5342 37.0052 47.8937 36.7987 49.6641ZM36.4637 13.7109H12.3957C13.1033 10.238 16.1805 7.61719 19.8594 7.61719H29C32.6783 7.61719 35.7561 10.238 36.4637 13.7109Z" fill="black"/>
<path d="M29 66.8789C29 66.0374 28.318 65.3555 27.4766 65.3555H21.3828C20.5414 65.3555 19.8594 66.0374 19.8594 66.8789C19.8594 67.7204 20.5414 68.4023 21.3828 68.4023H27.4766C28.318 68.4023 29 67.7204 29 66.8789Z" fill="black"/>
<path d="M25.9531 76.4766C25.9531 77.318 25.2711 78 24.4297 78C23.5882 78 22.9062 77.318 22.9062 76.4766C22.9062 75.6351 23.5882 74.9531 24.4297 74.9531C25.2711 74.9531 25.9531 75.6351 25.9531 76.4766Z" fill="black"/>
</svg>
