<svg width="13" height="13" viewBox="0 0 13 13" fill="none" xmlns="http://www.w3.org/2000/svg">
<path d="M9.06867 3.37731L9.68314 2.83329C9.48684 2.61308 9.27357 2.40858 9.04532 2.22168L8.52588 2.85664C8.72033 3.01551 8.90184 3.18964 9.06867 3.37731Z" fill="#F73B5D"/>
<path d="M9.87394 4.64475L10.6269 4.32153C10.5105 4.05024 10.3722 3.78886 10.2135 3.53992L9.52246 3.97906C9.65724 4.19119 9.77478 4.41381 9.87394 4.64475Z" fill="#F73B5D"/>
<path d="M10.6642 5.71847L8.32628 8.05635L8.90553 8.6356L10.1726 7.37019C9.69116 9.92431 7.23036 11.6045 4.67624 11.1231C2.12212 10.6417 0.441881 8.18091 0.923298 5.62679C1.40471 3.07266 3.86551 1.39243 6.41964 1.87385C6.9432 1.97252 7.4462 2.1594 7.90721 2.42652L8.31686 1.71823C5.67597 0.18109 2.28902 1.07587 0.75191 3.71676C-0.785204 6.35766 0.109551 9.7446 2.75044 11.2817C5.39134 12.8188 8.77828 11.924 10.3154 9.28318C10.6824 8.65263 10.9211 7.95571 11.0177 7.23254L12.4207 8.6356L13 8.05635L10.6642 5.71847Z" fill="#F73B5D"/>
<path d="M4.51953 2.81567V7.32184L6.322 8.67369L6.81358 8.01824L5.33883 6.91219V2.81567H4.51953Z" fill="#F73B5D"/>
</svg>
