<svg width="82" height="82" viewBox="0 0 82 82" fill="none" xmlns="http://www.w3.org/2000/svg">
<path d="M38.4017 28.6904C38.317 29.9628 38.2664 31.3226 38.2664 32.8C38.2664 39.6456 40.3095 43.7334 43.733 43.7334C48.0489 43.7334 49.1996 38.5797 49.1996 35.5334C49.1996 34.7791 48.5874 34.1668 47.833 34.1668C47.0787 34.1668 46.4664 34.7791 46.4664 35.5334C46.4664 35.588 46.3489 41 43.733 41C42.1491 41 40.9996 37.5518 40.9996 32.8C40.9996 16.8661 46.592 15.0512 46.7683 15.0006C47.4885 14.8366 47.9519 14.1272 47.8056 13.3988C47.6594 12.6594 46.9432 12.1784 46.1985 12.3274C45.9251 12.382 44.9344 12.6418 43.7426 13.6626C43.7441 13.4275 43.7631 13.1926 43.8261 12.9587C44.0147 12.2536 44.467 11.6645 45.0998 11.2997C45.7311 10.9348 46.4691 10.8378 47.173 11.0263C47.8782 11.2162 48.4687 11.6687 48.8321 12.3C49.5864 13.6051 49.1381 15.2807 47.833 16.0337C47.1785 16.4123 46.9557 17.2487 47.3329 17.9019C47.5857 18.3393 48.0449 18.5839 48.5177 18.5839C48.7501 18.5839 48.985 18.5251 49.1996 18.4008C51.81 16.892 52.7066 13.5423 51.2005 10.9334C50.4706 9.66927 49.2912 8.76455 47.8809 8.38594C46.4679 8.00733 44.9959 8.20288 43.733 8.93255C42.4689 9.66239 41.5642 10.8418 41.1856 12.2521C40.8316 13.5723 40.9996 14.9431 41.642 16.1908C40.4694 18.0988 39.3734 20.9399 38.7639 25.1657C36.718 22.7153 35.533 19.5938 35.533 16.3998C35.533 8.86401 41.664 2.73323 49.1996 2.73323C56.7353 2.73323 62.8662 8.86417 62.8662 16.3998C62.8662 23.9355 56.7353 30.0665 49.1996 30.0665C47.7155 30.0665 46.2558 29.8301 44.8632 29.3653C44.1485 29.1275 43.3722 29.513 43.1344 30.2277C42.8938 30.9438 43.2806 31.7173 43.9968 31.9566C45.6696 32.5156 47.4203 32.7998 49.1996 32.7998C58.2429 32.7998 65.5996 25.4431 65.5996 16.3998C65.5998 7.35678 58.243 0 49.1998 0C40.1566 0 32.7998 7.35678 32.7998 16.4C32.7998 21.0604 34.8922 25.5894 38.4017 28.6904Z" fill="black"/>
<path d="M81.5996 40.0334L67.4054 25.8392C66.8724 25.3062 66.0072 25.3062 65.473 25.8392C64.94 26.3736 64.94 27.2386 65.473 27.7716L79.2667 41.5654V46.4664H74.3658L73.8 45.9005V42.3664C73.8 41.612 73.1877 40.9998 72.4333 40.9998H71.0667V39.6331C71.0667 38.8788 70.4545 38.2665 69.7001 38.2665H66.1672L65.6001 37.6994V34.1665C65.6001 33.4122 64.9878 32.7999 64.2335 32.7999H60.6992L60.5666 32.6673C60.0336 32.1343 59.1684 32.1343 58.6341 32.6673C58.1011 33.2017 58.1011 34.0667 58.6341 34.5997L59.1671 35.1327C59.4227 35.3896 59.7712 35.5331 60.1334 35.5331H62.8667V38.2651C62.8667 38.6272 63.0102 38.9744 63.2658 39.23L64.6325 40.5994C64.8893 40.8563 65.2366 40.9998 65.6001 40.9998H68.3335V42.3664C68.3335 43.1207 68.9458 43.733 69.7001 43.733H71.0667V46.4664C71.0667 46.8285 71.2102 47.177 71.4671 47.4326L72.8337 48.7992C73.0893 49.0561 73.4378 49.1996 73.8 49.1996H80.6334C81.3877 49.1996 82 48.5873 82 47.833V40.9996C82 40.6375 81.8565 40.289 81.5996 40.0334Z" fill="black"/>
<path d="M8.2002 23.2338C8.2002 23.9881 8.81247 24.6004 9.56681 24.6004H10.9334V32.8004H9.56681C8.81247 32.8004 8.2002 33.4127 8.2002 34.167C8.2002 34.9214 8.81247 35.5336 9.56681 35.5336H10.9334V43.7336H9.56681C8.81247 43.7336 8.2002 44.3459 8.2002 45.1003C8.2002 45.8546 8.81247 46.4669 9.56681 46.4669H10.9334V54.6669H9.56681C8.81247 54.6669 8.2002 55.2791 8.2002 56.0335C8.2002 56.7878 8.81247 57.4001 9.56681 57.4001H10.9334V65.6001H9.56681C8.81247 65.6001 8.2002 66.2124 8.2002 66.9667C8.2002 67.721 8.81247 68.3333 9.56681 68.3333H10.9334V75.1667C10.9334 75.921 11.5457 76.5333 12.3 76.5333C13.0544 76.5333 13.6666 75.921 13.6666 75.1667V68.3333H19.1333V75.1667C19.1333 75.921 19.7455 76.5333 20.4999 76.5333C21.2542 76.5333 21.8665 75.921 21.8665 75.1667V68.3333H27.3331V75.1667C27.3331 75.921 27.9454 76.5333 28.6997 76.5333C29.454 76.5333 30.0663 75.921 30.0663 75.1667V68.3333H35.5329V75.1667C35.5329 75.921 36.1452 76.5333 36.8995 76.5333C37.6539 76.5333 38.2662 75.921 38.2662 75.1667V68.3333H39.6328C40.3871 68.3333 40.9994 67.721 40.9994 66.9667C40.9994 66.2124 40.3871 65.6001 39.6328 65.6001H38.2662V57.4001H39.6328C40.3871 57.4001 40.9994 56.7878 40.9994 56.0335C40.9994 55.2791 40.3871 54.6669 39.6328 54.6669H38.2662V46.4669C39.0205 46.4669 39.6328 45.8546 39.6328 45.1003C39.6328 44.3459 39.0205 43.7336 38.2662 43.7336C38.2662 42.9793 37.6539 42.367 36.8995 42.367C36.1452 42.367 35.5329 42.9793 35.5329 43.7336H30.0663V35.5336H34.1663C34.9207 35.5336 35.5329 34.9214 35.5329 34.167C35.5329 33.4127 34.9207 32.8004 34.1663 32.8004H30.0663V24.6004H30.7502C31.5045 24.6004 32.1168 23.9881 32.1168 23.2338C32.1168 22.4795 31.5045 21.8672 30.7502 21.8672H9.56681C8.81247 21.867 8.2002 22.4793 8.2002 23.2338ZM30.0668 46.467H35.5334V54.667H30.0668V46.467ZM30.0668 57.4004H35.5334V65.6004H30.0668V57.4004ZM21.8668 24.6004H27.3334V32.8004H21.8668V24.6004ZM21.8668 35.5338H27.3334V43.7338H21.8668V35.5338ZM21.8668 46.467H27.3334V54.667H21.8668V46.467ZM21.8668 57.4004H27.3334V65.6004H21.8668V57.4004ZM13.6668 24.6004H19.1334V32.8004H13.6668V24.6004ZM13.6668 35.5338H19.1334V43.7338H13.6668V35.5338ZM13.6668 46.467H19.1334V54.667H13.6668V46.467ZM13.6668 57.4004H19.1334V65.6004H13.6668V57.4004Z" fill="black"/>
<path d="M28.6999 19.1336C29.4543 19.1336 30.0665 18.5213 30.0665 17.767C30.0665 17.0127 29.4543 16.4004 28.6999 16.4004H20.4999C19.7456 16.4004 19.1333 17.0127 19.1333 17.767C19.1333 18.5213 19.7456 19.1336 20.4999 19.1336H28.6999Z" fill="black"/>
<path d="M80.6334 79.2667H60.1334V73.662C63.2479 73.0265 65.6 70.2672 65.6 66.9667C65.6 66.789 65.5222 49.2 58.7666 49.2C52.0111 49.2 51.9332 66.789 51.9332 66.9667C51.9332 70.2672 54.2853 73.0265 57.3998 73.662V79.2667H46.4664V47.8334C46.4664 47.0791 45.8542 46.4668 45.0998 46.4668C44.3455 46.4668 43.7332 47.0791 43.7332 47.8334V79.2668H5.46661V19.1334H15.0332C15.7876 19.1334 16.3998 18.5212 16.3998 17.7668V13.6668H28.6998C29.4542 13.6668 30.0665 13.0545 30.0665 12.3002C30.0665 11.5459 29.4542 10.9336 28.6998 10.9336H15.0334C14.279 10.9336 13.6668 11.5459 13.6668 12.3002V16.4002H4.1C3.34566 16.4002 2.73339 17.0125 2.73339 17.7668V79.2668H1.36661C0.612277 79.2668 0 79.8791 0 80.6334C0 81.3878 0.612277 82 1.36661 82H80.6332C81.3876 82 81.9998 81.3878 81.9998 80.6334C81.9998 79.8791 81.3877 79.2667 80.6334 79.2667ZM54.6666 66.9667C54.6666 60.1579 56.4953 51.9333 58.7666 51.9333C61.038 51.9333 62.8666 60.1579 62.8666 66.9667C62.8666 69.2271 61.0271 71.0667 58.7666 71.0667C56.5062 71.0667 54.6666 69.2271 54.6666 66.9667Z" fill="black"/>
</svg>
