<svg width="66" height="66" viewBox="0 0 66 66" fill="none" xmlns="http://www.w3.org/2000/svg">
<path d="M4.3125 61.6875H10.6875V55.3125H4.3125V61.6875ZM6.4375 57.4375H8.5625V59.5625H6.4375V57.4375Z" fill="black"/>
<path d="M12.8125 61.6875H19.1875V55.3125H12.8125V61.6875ZM14.9375 57.4375H17.0625V59.5625H14.9375V57.4375Z" fill="black"/>
<path d="M21.3125 61.6875H27.6875V55.3125H21.3125V61.6875ZM23.4375 57.4375H25.5625V59.5625H23.4375V57.4375Z" fill="black"/>
<path d="M4.3125 53.1875H10.6875V46.8125H4.3125V53.1875ZM6.4375 48.9375H8.5625V51.0625H6.4375V48.9375Z" fill="black"/>
<path d="M12.8125 53.1875H19.1875V46.8125H12.8125V53.1875ZM14.9375 48.9375H17.0625V51.0625H14.9375V48.9375Z" fill="black"/>
<path d="M21.3125 53.1875H27.6875V46.8125H21.3125V53.1875ZM23.4375 48.9375H25.5625V51.0625H23.4375V48.9375Z" fill="black"/>
<path d="M4.3125 44.6875H10.6875V38.3125H4.3125V44.6875ZM6.4375 40.4375H8.5625V42.5625H6.4375V40.4375Z" fill="black"/>
<path d="M12.8125 44.6875H19.1875V38.3125H12.8125V44.6875ZM14.9375 40.4375H17.0625V42.5625H14.9375V40.4375Z" fill="black"/>
<path d="M21.3125 44.6875H27.6875V38.3125H21.3125V44.6875ZM23.4375 40.4375H25.5625V42.5625H23.4375V40.4375Z" fill="black"/>
<path d="M16 23.4375C15.4135 23.4375 14.9375 22.9604 14.9375 22.375H12.8125C12.8125 23.7584 13.7039 24.9271 14.9375 25.367V27.6875H17.0625V25.5625H19.1875V22.375C19.1875 20.6176 17.7574 19.1875 16 19.1875C15.4135 19.1875 14.9375 18.7104 14.9375 18.125V17.0625H16C16.5865 17.0625 17.0625 17.5396 17.0625 18.125H19.1875C19.1875 16.7416 18.2961 15.5729 17.0625 15.133V12.8125H14.9375V14.9375H12.8125V18.125C12.8125 19.8824 14.2426 21.3125 16 21.3125C16.5865 21.3125 17.0625 21.7896 17.0625 22.375V23.4375H16Z" fill="black"/>
<path d="M9.625 21.3125C10.2118 21.3125 10.6875 20.8368 10.6875 20.25C10.6875 19.6632 10.2118 19.1875 9.625 19.1875C9.0382 19.1875 8.5625 19.6632 8.5625 20.25C8.5625 20.8368 9.0382 21.3125 9.625 21.3125Z" fill="black"/>
<path d="M22.375 21.3125C22.9618 21.3125 23.4375 20.8368 23.4375 20.25C23.4375 19.6632 22.9618 19.1875 22.375 19.1875C21.7882 19.1875 21.3125 19.6632 21.3125 20.25C21.3125 20.8368 21.7882 21.3125 22.375 21.3125Z" fill="black"/>
<path d="M65.0439 48.7473L62.1731 45.9519C62.0796 45.8191 61.985 45.6884 61.8671 45.5704C60.9788 44.6822 59.5636 44.475 57.8253 44.9404C56.9211 42.7399 55.1882 40.3302 53.179 38.321C49.2276 34.3717 43.727 31.4721 41.3204 33.8829C41.2025 34.0009 41.1069 34.1326 41.0144 34.2644L38.1329 37.0704C36.128 39.0754 37.8014 43.2181 40.6946 46.8284C37.3658 46.9315 34.0232 47.6657 31.9375 48.9811V24.5C31.9375 21.9181 30.0845 19.7655 27.6386 19.2895C27.1477 13.2938 22.12 8.5625 16 8.5625C9.88 8.5625 4.85225 13.2938 4.36137 19.2895C1.9155 19.7655 0.0625 21.9181 0.0625 24.5V60.625C0.0625 63.5543 2.44569 65.9375 5.375 65.9375H26.625C28.5981 65.9375 30.3034 64.8442 31.2192 63.243C33.3283 65.0046 37.4976 65.9375 41.5 65.9375C44.1127 65.9375 46.6042 65.5709 48.6156 64.9016L48.7579 65.0546C49.3667 65.6634 50.1721 65.9332 51.0997 65.9332C53.8462 65.9332 57.6638 63.5681 60.6165 60.6165C64.5669 56.6661 67.4643 51.1677 65.0439 48.7473ZM62.9476 54.0077L61.3135 52.3736C61.9032 51.3143 62.3441 50.2709 62.5694 49.3041L63.5511 50.2603C64.0484 50.7565 63.8762 52.1654 62.9476 54.0077ZM56.6544 58.1579L58.347 59.8504C57.5034 60.6282 56.6767 61.2784 55.8894 61.8203L54.2192 60.1352C55.0564 59.5402 55.8756 58.8751 56.6544 58.1579ZM58.1642 56.6619C58.8836 55.8809 59.554 55.0543 60.1501 54.2149L61.8214 55.8862C61.2784 56.6746 60.6282 57.5023 59.8494 58.347L58.1642 56.6619ZM60.3647 47.0728C61.2646 47.9727 59.9832 51.87 55.9266 55.9266C51.8689 59.9832 47.9717 61.2625 47.0728 60.3647C46.4056 59.6974 46.9623 57.055 49.5771 53.7124C50.4632 54.0386 51.3132 54.2351 52.0772 54.2351C53.0175 54.2351 53.8346 53.961 54.454 53.3416L56.9647 50.6524C57.1984 50.5249 57.4205 50.3761 57.6149 50.1806C58.4044 49.3912 58.6158 48.266 58.415 46.9761C59.3351 46.7328 60.0512 46.7594 60.3647 47.0728ZM44.6917 59.3351C44.0001 59.4265 43.2903 59.4881 42.5625 59.5179V57.4088C43.4359 57.3748 44.2912 57.2983 45.1199 57.1836C44.8522 57.9581 44.7098 58.6796 44.6917 59.3351ZM31.9375 55.2679C32.5474 55.6525 33.2688 55.9851 34.0625 56.2698V58.262C32.6982 57.6638 31.9375 56.9604 31.9375 56.375V55.2679ZM36.1875 56.8786C37.5305 57.1751 38.9819 57.3568 40.4375 57.4162V59.5412C38.8182 59.4754 37.3934 59.2618 36.1875 58.9632V56.8786ZM40.4375 61.6662V63.7912C38.8182 63.7254 37.3934 63.5118 36.1875 63.2132V61.1286C37.5305 61.4251 38.9819 61.6068 40.4375 61.6662ZM45.0232 44.9744L43.3381 46.6595C42.5604 45.8148 41.9091 44.9871 41.3661 44.1987L43.0374 42.5274C43.6324 43.3679 44.3039 44.1934 45.0232 44.9744ZM46.5331 46.4704C47.3119 47.1876 48.1311 47.8538 48.9683 48.4477L47.2991 50.1318C46.5107 49.5899 45.6841 48.9396 44.8405 48.1619L46.5331 46.4704ZM49.1755 51.2569L50.8032 49.6154C51.8604 50.2051 52.8974 50.6333 53.8643 50.8606L52.9282 51.8636C52.431 52.3598 51.02 52.1877 49.1755 51.2569ZM42.8228 35.3853C43.0034 35.2047 43.3052 35.1122 43.7047 35.1122C45.2942 35.1122 48.4339 36.5817 51.6766 39.8234C55.7322 43.88 57.0136 47.7773 56.1147 48.6772C55.2158 49.5771 51.3175 48.2957 47.2609 44.2391C43.2042 40.1825 41.9229 36.2852 42.8228 35.3853ZM39.6247 38.5834L40.6171 37.6166C40.8434 38.5834 41.2832 39.6268 41.8729 40.6861L40.2377 42.3213C39.3091 40.48 39.1349 39.0733 39.6247 38.5834ZM41.5 48.9375C41.8782 48.9375 42.2459 48.9534 42.6135 48.9694C44.135 50.4834 45.8796 51.8317 47.5913 52.788C47.0643 53.4871 46.6021 54.1746 46.2154 54.8408C44.7682 55.1446 43.1532 55.3125 41.5 55.3125C35.6626 55.3125 31.9375 53.4255 31.9375 52.125C31.9375 50.8245 35.6626 48.9375 41.5 48.9375ZM6.4375 26.9491C8.554 29.9602 12.0475 31.9375 16 31.9375C19.9525 31.9375 23.446 29.9602 25.5625 26.9491V34.0625H6.4375V26.9491ZM16 10.6875C21.2732 10.6875 25.5625 14.9779 25.5625 20.25C25.5625 25.5221 21.2732 29.8125 16 29.8125C10.7268 29.8125 6.4375 25.5221 6.4375 20.25C6.4375 14.9779 10.7268 10.6875 16 10.6875ZM26.625 63.8125H5.375C3.61762 63.8125 2.1875 62.3824 2.1875 60.625V24.5C2.1875 23.1166 3.07894 21.9479 4.3125 21.508V36.1875H27.6875V21.508C28.9211 21.9479 29.8125 23.1166 29.8125 24.5V52.125V56.375V60.625C29.8125 62.3824 28.3824 63.8125 26.625 63.8125ZM31.9375 60.625V59.5179C32.5474 59.9025 33.2688 60.2351 34.0625 60.5198V62.512C32.6982 61.9138 31.9375 61.2104 31.9375 60.625ZM42.5625 63.7721V61.6429C43.4677 61.6078 44.3496 61.5313 45.2071 61.4081C45.3133 61.5706 45.4312 61.7268 45.5704 61.866C45.7659 62.0615 45.988 62.2103 46.2207 62.3377L46.9952 63.1676C45.6756 63.5107 44.1562 63.7063 42.5625 63.7721ZM50.2869 63.5777L49.3253 62.5481C50.2911 62.3208 51.3281 61.8926 52.3853 61.3029L54.0152 62.9476C52.1739 63.8816 50.7682 64.0601 50.2869 63.5777Z" fill="black"/>
<path d="M60.625 6.4375H62.75V8.5625H60.625V6.4375Z" fill="black"/>
<path d="M65.7302 23.4375H62.7498V10.6875H60.6248V25.5625H61.8945L58.4998 30.9951L55.1052 25.5625H56.3748V0.0625H54.2498V23.4375H51.2695L58.4998 35.0049L65.7302 23.4375Z" fill="black"/>
<path d="M60.625 2.1875H62.75V4.3125H60.625V2.1875Z" fill="black"/>
<path d="M39.375 23.4375H41.5V25.5625H39.375V23.4375Z" fill="black"/>
<path d="M39.3748 21.3126H41.4998V10.6876H40.2302L43.6248 5.25499L47.0195 10.6876H45.7498V31.9376H47.8748V12.8126H50.8552L43.6248 1.24512L36.3945 12.8126H39.3748V21.3126Z" fill="black"/>
<path d="M39.375 27.6875H41.5V29.8125H39.375V27.6875Z" fill="black"/>
</svg>
