<svg width="86" height="87" viewBox="0 0 86 87" fill="none" xmlns="http://www.w3.org/2000/svg">
<path d="M12.3833 13.0498H18.25V15.9498H12.3833V13.0498Z" fill="black"/>
<path d="M21.1836 13.0498H35.8503V15.9498H21.1836V13.0498Z" fill="black"/>
<path d="M12.3833 18.8496H35.85V21.7496H12.3833V18.8496Z" fill="black"/>
<path d="M12.3833 30.4502H38.7833V33.3502H12.3833V30.4502Z" fill="black"/>
<path d="M41.7168 30.4502H47.5835V33.3502H41.7168V30.4502Z" fill="black"/>
<path d="M50.5166 30.4502H56.3833V33.3502H50.5166V30.4502Z" fill="black"/>
<path d="M12.3833 36.25H56.3833V39.15H12.3833V36.25Z" fill="black"/>
<path d="M12.3833 42.0498H29.9833V44.9498H12.3833V42.0498Z" fill="black"/>
<path d="M85.2769 16.8725C85.1759 16.5008 84.9303 16.1844 84.5929 15.9918L79.5126 13.0918C79.1746 12.8985 78.7721 12.8468 78.3947 12.9473C78.0173 13.0486 77.6965 13.2943 77.5031 13.6299L75.3031 17.4C73.9009 16.6 72.1077 17.075 71.2977 18.4613L68.1166 23.9016V7.25C68.1116 3.24763 64.8316 0.00495606 60.7832 0H7.98324C3.93486 0.00495606 0.654915 3.24763 0.649902 7.25V79.75C0.654915 83.7524 3.93486 86.995 7.98324 87H60.7832C64.8316 86.995 68.1116 83.7524 68.1166 79.75V52.9002L84.0007 25.7014C84.8107 24.3144 84.3301 22.5408 82.9272 21.7401L85.1272 17.9699C85.322 17.6379 85.3757 17.2435 85.2769 16.8725ZM77.8497 18.8401L79.3164 16.3288L81.8566 17.7788L80.3899 20.2901L77.8497 18.8401ZM70.8537 36.6139L75.987 27.8254L78.5272 29.2754L59.4605 61.9252L51.8336 57.5752L70.9002 24.9268L73.4404 26.3768L68.3071 35.1667L70.8537 36.6139ZM53.3532 65.1339L52.0799 64.4089L51.6402 60.8101L56.7205 63.7101L53.3532 65.1339ZM54.9166 2.9V12.4496L53.0202 10.5748C52.4473 10.0091 51.5192 10.0091 50.9463 10.5748L49.0499 12.4496V2.9H54.9166ZM65.1832 79.75C65.1832 82.1523 63.2131 84.1 60.7832 84.1H7.98324C5.55335 84.1 3.58324 82.1523 3.58324 79.75V7.25C3.58324 4.84773 5.55335 2.9 7.98324 2.9H46.1166V15.95C46.1166 16.5362 46.4739 17.0651 47.0218 17.2896C47.5696 17.514 48.2006 17.3894 48.6202 16.9752L51.9832 13.6504L55.3463 16.9752C55.7659 17.3894 56.3968 17.514 56.9447 17.2896C57.4925 17.0651 57.8499 16.5362 57.8499 15.95V2.9H60.7832C63.2131 2.9 65.1832 4.84773 65.1832 7.25V28.925L48.5658 57.3791C48.4082 57.651 48.3424 57.966 48.3796 58.2768L49.2597 65.4759C49.3149 65.929 49.5827 66.3297 49.983 66.5577L47.783 70.3278C47.5166 70.7767 47.5138 71.3325 47.7759 71.7835C48.038 72.2345 48.525 72.512 49.0513 72.5113C49.5777 72.5099 50.0625 72.2303 50.3232 71.7778L52.5232 68.0077C52.9228 68.2364 53.4077 68.2654 53.833 68.0863L60.5791 65.2373C60.8713 65.1141 61.1155 64.901 61.2745 64.6291L65.1832 57.9228V79.75ZM79.9967 26.7627L72.3698 22.4127L73.8364 19.9014L81.4634 24.2514L79.9967 26.7627Z" fill="black"/>
<path d="M40.2502 70.5278C39.2634 70.508 38.288 70.736 37.415 71.1919C36.4346 71.6974 35.2658 71.6974 34.2854 71.1919C33.4132 70.7345 32.437 70.5059 31.4502 70.5278V73.4278C31.9959 73.4101 32.5366 73.5411 33.0121 73.8059C34.796 74.6937 36.8986 74.6937 38.6826 73.8059C39.6637 73.3004 40.8324 73.3004 41.8135 73.8059C42.6865 74.2618 43.6626 74.4912 44.6502 74.4714V71.5714C44.1024 71.5898 43.5609 71.4581 43.084 71.1919C42.2117 70.7367 41.2363 70.508 40.2502 70.5278Z" fill="black"/>
<path d="M31.4501 57.9995C32.0674 57.9995 32.6196 57.6179 32.8294 57.0437C33.0399 56.4695 32.8645 55.8266 32.3904 55.4358L23.5904 48.1858C23.0461 47.7362 22.2541 47.7362 21.7098 48.1858L12.9098 55.4358C12.4357 55.8266 12.2603 56.4695 12.4708 57.0437C12.6806 57.6179 13.2328 57.9995 13.8501 57.9995H15.3168V66.6995C15.3168 67.5003 15.9735 68.1495 16.7834 68.1495H28.5168C29.3267 68.1495 29.9834 67.5003 29.9834 66.6995V57.9995H31.4501ZM22.6501 51.1842L27.3989 55.0995H17.9013L22.6501 51.1842ZM27.0501 65.2495H18.2501V57.9995H27.0501V65.2495Z" fill="black"/>
</svg>
