<svg width="89" height="88" viewBox="0 0 89 88" fill="none" xmlns="http://www.w3.org/2000/svg">
<path d="M88.1403 53.973C85.4703 50.453 82.8003 50.453 76.2736 53.8264L63.5168 61.5996C61.7368 62.6262 57.7318 62.9196 54.0235 62.9196C54.7653 61.5996 54.4686 59.9862 53.1335 58.0796C50.7603 54.7062 46.7553 52.653 42.4536 52.653H36.6686C33.5536 52.653 30.5868 51.773 28.2136 50.013C22.8612 46.0439 14.4916 50.3627 10.4136 52.9388V49.8664H0.0302734V87.9996H10.4136V83.5996H29.6968C32.6636 83.5996 35.7786 83.3062 38.7451 83.1596L58.0284 80.2262C58.7701 80.2262 59.5117 80.0796 60.1051 79.9328C61.8851 79.6394 63.5168 78.7594 65.0001 77.4394L87.3984 59.8394C89.1786 58.373 89.4753 55.733 88.1403 53.973ZM7.44683 85.0662H2.99682V52.7996H7.44683V54.9996V83.5996V85.0662ZM85.6186 57.7862L63.0718 75.093L62.9236 75.2396C62.0336 76.2662 60.8468 76.853 59.5118 76.9996C58.9185 77.1462 58.4735 77.1462 57.8801 77.1462L38.3001 80.0796C35.4818 80.5196 32.5151 80.6662 29.6968 80.6662H10.4136V56.4662C13.9735 53.9728 22.2803 49.2796 26.4336 52.5062C29.2518 54.5596 32.8118 55.7328 36.6686 55.7328H42.4536C45.8653 55.7328 48.9803 57.1994 50.9086 59.9862C51.5018 60.8662 51.6503 61.7462 51.5018 62.0396C51.0568 62.773 49.2768 63.0662 47.3485 63.213C46.9361 63.213 46.5246 63.213 46.1618 63.213C46.0029 63.213 45.8524 63.213 45.7168 63.213H31.7736C27.1753 63.213 24.3568 65.413 24.3568 69.0796C24.3568 69.9596 24.9501 70.5462 25.8401 70.5462C26.7301 70.5462 27.3234 69.9596 27.3234 69.0796C27.3234 68.3462 27.3234 66.1462 31.7734 66.1462H45.5684C46.0134 66.1462 46.6067 66.1462 47.4967 66.1462C47.6449 66.1462 47.9417 66.1462 48.2384 66.1462C55.2101 66.2928 61.7367 66.1462 65.1484 64.3862L77.9051 56.6128C84.1351 53.5328 84.7284 54.2662 85.9151 56.0262C86.2118 56.4662 86.2118 57.3462 85.6186 57.7862Z" fill="black"/>
<path d="M55.3586 42.0936C55.6553 42.387 55.9518 42.5336 56.3968 42.5336C56.8418 42.5336 57.1386 42.387 57.4351 42.0936L61.8851 37.6936C62.4784 37.107 62.4784 36.227 61.8851 35.6402C61.2918 35.0534 60.4018 35.0536 59.8084 35.6402L55.3584 40.0402C54.7653 40.6268 54.7653 41.5068 55.3586 42.0936Z" fill="black"/>
<path d="M50.9083 35.6398C50.3151 36.2264 50.3151 37.1064 50.9083 37.6931C51.2051 37.9865 51.5016 38.1331 51.9466 38.1331C52.3916 38.1331 52.6883 37.9865 52.9849 37.6931L57.4349 33.2932C58.0282 32.7065 58.0282 31.8265 57.4349 31.2398C56.8416 30.6532 55.9516 30.6532 55.3582 31.2398L50.9083 35.6398Z" fill="black"/>
<path d="M31.1805 21.8804V45.4668C31.1805 45.9068 31.3288 46.2002 31.6255 46.4934L36.2238 50.8934C36.5205 51.1868 36.8171 51.3334 37.2621 51.3334C37.5588 51.3334 38.0038 51.1868 38.3003 50.8934L42.6021 46.4934C42.8988 46.2 43.0471 45.9068 43.0471 45.4668V44C43.0471 43.56 42.8988 43.2666 42.6021 42.9734L40.6738 41.0668L42.6021 39.1602C42.8988 38.8668 43.0471 38.5736 43.0471 38.1336L53.8753 48.8402C54.7653 49.5736 55.8036 50.0136 56.8421 50.0136C57.7321 50.0136 58.6221 49.7202 59.3638 48.987L71.6755 36.8136C72.4172 36.0802 72.7138 35.0536 72.7138 34.027C72.7138 33.0003 72.2688 32.1203 71.5271 31.387L58.2124 18.2218C58.9793 16.6427 59.3638 14.9689 59.3638 13.2002C59.3638 6.74678 54.0238 1.46678 47.4971 1.46678C46.2718 1.46678 45.0464 1.67028 43.8211 2.07058C41.9097 0.766734 39.5983 0 37.1138 0C30.5871 0 25.2471 5.28 25.2471 11.7334C25.2471 16.0528 27.6412 19.8437 31.1805 21.8804ZM40.0805 37.5466L37.5588 40.04C36.9655 40.6266 36.9655 41.5066 37.5588 42.0934L40.0805 44.5868V44.8802L37.1138 47.8136L34.1471 44.88V23.1734C34.8888 23.32 35.6303 23.4668 36.3721 23.4668L37.5588 30.5068C37.7071 32.1202 38.5971 33.7334 39.7838 34.9068L40.0805 35.2002V37.5466ZM69.7471 34.1734C69.7471 34.32 69.7471 34.4668 69.5988 34.6134L57.2871 46.7868C56.9903 47.0802 56.3971 47.0802 55.9521 46.6402L41.8603 32.7068C41.1186 31.9734 40.5253 30.9468 40.3771 29.9202L39.5613 24.4202L39.1905 21.8534C39.1905 21.8503 39.19 21.8474 39.19 21.8443C39.1903 21.7986 39.1905 21.7527 39.1905 21.7068L39.1624 21.5301C41.3095 23.6308 44.2566 24.9334 47.4972 24.9334C48.3872 24.9334 48.9805 24.3468 48.9805 23.4668C48.9805 22.5868 48.3871 22 47.4971 22C43.9454 22 40.864 19.9145 39.4391 16.9214C39.6642 16.7279 39.9486 16.5712 40.2625 16.4789C40.4428 16.444 40.6319 16.4266 40.8221 16.4266C40.9431 16.4266 41.0654 16.4266 41.2671 16.4266L46.4588 17.16C46.5162 17.1713 46.5723 17.178 46.6278 17.1825L52.5405 18.04C53.5788 18.1866 54.6172 18.7734 55.3588 19.5066L69.4505 33.44C69.5988 33.5866 69.7471 33.88 69.7471 34.1734ZM47.4971 4.4C52.3921 4.4 56.3971 8.36 56.3971 13.2C56.3971 14.2266 56.2488 15.2534 55.9521 16.1334C55.0621 15.6934 54.0238 15.2534 52.9853 15.1068L48.6836 14.5202C48.7194 14.3077 48.7552 14.0951 48.789 13.8805C48.8886 13.3293 48.9492 12.767 48.9697 12.1877C48.976 12.039 48.9803 11.8884 48.9803 11.7336C48.9803 11.5471 48.9748 11.3608 48.9659 11.1746C48.9635 11.1248 48.9597 11.0753 48.9565 11.0254C48.9478 10.8805 48.9369 10.736 48.9228 10.5916C48.9192 10.5547 48.9152 10.5177 48.9112 10.4808C48.6768 8.27166 47.8315 6.12803 46.4584 4.40017C46.7555 4.4 47.2005 4.4 47.4971 4.4ZM37.1138 2.93339C39.0942 2.93339 40.9286 3.58205 42.4116 4.67448C42.4686 4.7355 42.5303 4.79256 42.6022 4.84017C43.9845 5.93364 44.9653 7.31019 45.5106 8.82905C45.5206 8.85723 45.53 8.88559 45.5398 8.91378C45.5785 9.0255 45.6149 9.13808 45.6489 9.25134C45.6641 9.30188 45.6787 9.35275 45.6929 9.40363C45.7192 9.49747 45.7437 9.59166 45.7668 9.68636C45.7817 9.74755 45.7965 9.80873 45.8101 9.87027C45.8295 9.95827 45.8467 10.0468 45.8634 10.1355C45.8756 10.2008 45.8883 10.2659 45.8991 10.3317C45.9138 10.4216 45.9257 10.512 45.9377 10.6026C45.946 10.6666 45.9556 10.7302 45.9625 10.7944C45.9735 10.8955 45.9809 10.9972 45.9884 11.0988C45.9924 11.153 45.998 11.2068 46.0009 11.2612C46.0094 11.418 46.0141 11.5754 46.0141 11.7334C46.0141 11.873 46.0094 12.0125 46.0018 12.1517C46.0009 12.1694 45.9997 12.187 45.9987 12.2045C45.9908 12.3313 45.9806 12.4578 45.9677 12.584C45.9662 12.5986 45.9649 12.6137 45.9634 12.6283C45.9573 12.6859 45.9493 12.7428 45.9423 12.8C45.8853 13.2443 45.8019 13.6627 45.7174 14.08L41.7124 13.4934C40.6453 13.3975 39.5789 13.5546 38.6362 14.0015C38.6117 13.7373 38.5974 13.4702 38.5974 13.2C38.5974 11.88 38.8941 10.56 39.4874 9.38661C39.7841 8.65322 39.4874 7.77322 38.7457 7.48C38.004 7.18661 37.114 7.48 36.8174 8.21339C36.0757 9.68 35.6307 11.44 35.6307 13.2C35.6307 14.3571 35.805 15.4753 36.1244 16.5333C35.7407 17.4065 35.6039 18.4083 35.779 19.36L35.9272 20.3866C35.8143 20.3751 35.7021 20.3598 35.5904 20.3436C34.8469 20.1979 34.1259 19.9698 33.4055 19.6532C33.3271 19.6274 33.243 19.608 33.1569 19.592C30.2493 18.1772 28.214 15.1308 28.214 11.7332C28.2138 6.89339 32.2188 2.93339 37.1138 2.93339Z" fill="black"/>
</svg>
