<svg width="15" height="15" viewBox="0 0 15 15" fill="none" xmlns="http://www.w3.org/2000/svg">
<path d="M14.7482 6.82823L12.4749 4.55491V1.92884C12.4749 1.45401 12.0901 1.0692 11.6146 1.0692C11.1401 1.0692 10.7554 1.45401 10.7554 1.92884V2.83541L9.0627 1.14268C8.22582 0.306264 6.77078 0.307747 5.93582 1.1442L0.251661 6.82823C-0.0838871 7.16445 -0.0838871 7.70846 0.251661 8.04416C0.587361 8.38029 1.13244 8.38029 1.46802 8.04416L7.15163 2.35998C7.33678 2.17579 7.66313 2.17579 7.84731 2.35943L13.5319 8.04416C13.7005 8.21224 13.9202 8.29584 14.1399 8.29584C14.3601 8.29584 14.5802 8.21215 14.7482 8.04416C15.0839 7.70849 15.0839 7.16448 14.7482 6.82823Z" fill="#F73B5D"/>
<path d="M7.79855 3.99195C7.63341 3.8269 7.36602 3.8269 7.20137 3.99195L2.20157 8.99027C2.12263 9.06917 2.07788 9.17691 2.07788 9.28933V12.9349C2.07788 13.7904 2.77151 14.484 3.62694 14.484H6.10234V10.6504H8.89704V14.484H11.3725C12.2279 14.484 12.9215 13.7904 12.9215 12.9349V9.28933C12.9215 9.17691 12.8771 9.06917 12.7978 8.99027L7.79855 3.99195Z" fill="#F73B5D"/>
</svg>
