<?xml version="1.0" encoding="utf-8"?>
<!-- Generator: Adobe Illustrator 24.0.1, SVG Export Plug-In . SVG Version: 6.00 Build 0)  -->
<svg version="1.1" id="Слой_1" xmlns="http://www.w3.org/2000/svg" xmlns:xlink="http://www.w3.org/1999/xlink" x="0px" y="0px"
	 viewBox="0 0 66 72" style="enable-background:new 0 0 66 72;" xml:space="preserve">
<style type="text/css">
	.st0{fill:#292929;}
</style>
<g>
	<path class="st0" d="M1.5,60L1.5,60C2.3,60,3,60.7,3,61.5v9C3,71.3,2.3,72,1.5,72l0,0C0.7,72,0,71.3,0,70.5v-9
		C0,60.7,0.7,60,1.5,60z"/>
	<path class="st0" d="M22.5,47L22.5,47c0.8,0,1.5,0.7,1.5,1.5v22c0,0.8-0.7,1.5-1.5,1.5l0,0c-0.8,0-1.5-0.7-1.5-1.5v-22
		C21,47.7,21.7,47,22.5,47z"/>
	<path class="st0" d="M43.5,24L43.5,24c0.8,0,1.5,0.7,1.5,1.5v45c0,0.8-0.7,1.5-1.5,1.5l0,0c-0.8,0-1.5-0.7-1.5-1.5v-45
		C42,24.7,42.7,24,43.5,24z"/>
	<path class="st0" d="M64.5,0L64.5,0C65.3,0,66,0.7,66,1.5v69c0,0.8-0.7,1.5-1.5,1.5l0,0c-0.8,0-1.5-0.7-1.5-1.5v-69
		C63,0.7,63.7,0,64.5,0z"/>
</g>
</svg>
