<svg width="82" height="82" viewBox="0 0 82 82" fill="none" xmlns="http://www.w3.org/2000/svg">
<path d="M40.9999 0C40.0785 0 39.3312 0.747293 39.3312 1.66868C39.3312 2.59008 40.0785 3.33737 40.9999 3.33737C61.7669 3.33737 78.6624 20.2328 78.6624 40.9999C78.6624 61.7669 61.7669 78.6624 40.9999 78.6624C20.2328 78.6624 3.33737 61.7672 3.33737 40.9999C3.33737 26.8706 11.1362 14.05 23.6906 7.54134C24.5088 7.11722 24.8281 6.11017 24.404 5.29196C23.9798 4.47374 22.9725 4.15447 22.1546 4.57859C8.48916 11.6633 0 25.6193 0 40.9999C0 63.6075 18.3925 81.9997 40.9999 81.9997C63.6072 81.9997 81.9997 63.6072 81.9997 40.9999C81.9997 18.3925 63.6075 0 40.9999 0Z" fill="black"/>
<path d="M57.0727 19.8787C52.4209 16.3336 46.8631 14.46 40.9999 14.46C26.3655 14.46 14.4595 26.366 14.4595 41.0004C14.4595 55.6348 26.3655 67.5408 40.9999 67.5408C48.089 67.5408 54.754 64.7803 59.7668 59.7673C60.4184 59.1156 60.4184 58.0591 59.7668 57.4075C59.1151 56.7558 58.0583 56.7558 57.407 57.4075C53.0244 61.79 47.1977 64.2035 40.9999 64.2035C28.2058 64.2035 17.7968 53.7948 17.7968 41.0004C17.7968 28.206 28.2055 17.7973 40.9999 17.7973C51.2607 17.7973 60.4242 24.6709 63.2841 34.5131C63.5411 35.3981 64.4669 35.9067 65.3521 35.6498C66.2371 35.3925 66.746 34.4667 66.4888 33.5817C64.918 28.1754 61.574 23.3087 57.0727 19.8787Z" fill="black"/>
<path d="M60.5658 35.9497C59.9139 35.298 58.8573 35.298 58.206 35.9497C57.5544 36.6013 57.5544 37.6578 58.206 38.3095L64.483 44.5868C64.7959 44.8996 65.2203 45.0754 65.6631 45.0754C66.1058 45.0754 66.5302 44.8996 66.8431 44.5868L73.1202 38.3095C73.7718 37.6578 73.7718 36.6013 73.1202 35.9497C72.4683 35.298 71.4117 35.298 70.7604 35.9497L65.6631 41.0469L60.5658 35.9497Z" fill="black"/>
</svg>
