<svg width="64" height="64" viewBox="0 0 64 64" fill="none" xmlns="http://www.w3.org/2000/svg">
<path d="M29.9354 14.4514C29.3666 14.4514 28.9031 13.9879 28.9031 13.4191C28.9031 12.8503 29.3666 12.3868 29.9354 12.3868C30.5042 12.3868 30.9677 12.8503 30.9677 13.4191H33.0322C33.0322 12.0751 32.1661 10.9396 30.9677 10.5123V8.25781H28.9031V10.5123C27.7047 10.9396 26.8386 12.0751 26.8386 13.4191C26.8386 15.1265 28.228 16.5159 29.9354 16.5159C30.5042 16.5159 30.9677 16.9794 30.9677 17.5481C30.9677 18.1169 30.5042 18.5804 29.9354 18.5804C29.3666 18.5804 28.9031 18.1169 28.9031 17.5481H26.8386C26.8386 18.8921 27.7047 20.0276 28.9031 20.455V22.7094H30.9677V20.455C32.1661 20.0276 33.0322 18.8921 33.0322 17.5481C33.0322 15.8408 31.6428 14.4514 29.9354 14.4514Z" fill="black"/>
<path d="M4.12915 4.12891V10.3225H6.19367V6.19342H10.3227V4.12891H4.12915Z" fill="black"/>
<path d="M6.19367 24.7745V20.6455H4.12915V26.8391H10.3227V24.7745H6.19367Z" fill="black"/>
<path d="M49.5483 4.12891V6.19342H53.6774V10.3225H55.7419V4.12891H49.5483Z" fill="black"/>
<path d="M59.871 20.7494V0H0V30.9677H33.0323V58.8387C33.0323 61.6846 35.3476 64 38.1935 64H58.8387C61.6846 64 64 61.6846 64 58.8387V25.8064C64 23.3146 62.2235 21.2294 59.871 20.7494ZM33.0323 28.9032H2.06452V2.06452H57.8064V20.6452H40.0392C40.8599 19.0534 41.2903 17.3006 41.2903 15.4839C41.2903 9.22323 36.1961 4.12903 29.9355 4.12903C23.6748 4.12903 18.5806 9.22323 18.5806 15.4839C18.5806 21.7445 23.6748 26.8387 29.9355 26.8387C30.9915 26.8387 32.0258 26.6787 33.0323 26.3897V28.9032ZM33.343 24.1074C32.2498 24.5419 31.1071 24.7742 29.9355 24.7742C24.8134 24.7742 20.6452 20.6059 20.6452 15.4839C20.6452 10.3618 24.8134 6.19355 29.9355 6.19355C35.0575 6.19355 39.2258 10.3618 39.2258 15.4839C39.2258 17.3605 38.6601 19.1546 37.5979 20.705C35.616 20.9373 33.985 22.2803 33.343 24.1074ZM61.9355 58.8387C61.9355 60.5461 60.5461 61.9355 58.8387 61.9355H38.1935C36.4862 61.9355 35.0968 60.5461 35.0968 58.8387V25.8064C35.0968 24.0991 36.4862 22.7097 38.1935 22.7097H58.8387C60.5461 22.7097 61.9355 24.0991 61.9355 25.8064V58.8387Z" fill="black"/>
<path d="M53.6775 45.4189V59.8706H59.871V45.4189H53.6775ZM57.8065 57.806H55.742V47.4835H57.8065V57.806Z" fill="black"/>
<path d="M45.4194 53.6777V59.8713H51.613V53.6777H45.4194ZM49.5485 57.8068H47.484V55.7423H49.5485V57.8068Z" fill="black"/>
<path d="M37.1614 53.6777V59.8713H43.3549V53.6777H37.1614ZM41.2904 57.8068H39.2259V55.7423H41.2904V57.8068Z" fill="black"/>
<path d="M45.4194 45.4189V51.6125H51.613V45.4189H45.4194ZM49.5485 49.548H47.484V47.4835H49.5485V49.548Z" fill="black"/>
<path d="M37.1614 45.4189V51.6125H43.3549V45.4189H37.1614ZM41.2904 49.548H39.2259V47.4835H41.2904V49.548Z" fill="black"/>
<path d="M45.4194 37.1611V43.3547H51.613V37.1611H45.4194ZM49.5485 41.2902H47.484V39.2256H49.5485V41.2902Z" fill="black"/>
<path d="M53.6775 37.1611V43.3547H59.871V37.1611H53.6775ZM57.8065 41.2902H55.742V39.2256H57.8065V41.2902Z" fill="black"/>
<path d="M37.1614 37.1611V43.3547H43.3549V37.1611H37.1614ZM41.2904 41.2902H39.2259V39.2256H41.2904V41.2902Z" fill="black"/>
<path d="M37.1614 24.7744V35.097H59.8711V24.7744H37.1614ZM57.8065 33.0325H39.2259V26.8389H57.8065V33.0325Z" fill="black"/>
<path d="M25.8064 35.0967C24.099 35.0967 22.7096 36.4862 22.7096 38.1935C22.7096 38.2348 22.7199 38.274 22.722 38.3153L17.7981 40.2849C17.2304 39.6407 16.4087 39.2258 15.4838 39.2258C14.7375 39.2258 14.0603 39.5024 13.5256 39.9432L8.19607 36.7463C8.23632 36.546 8.258 36.3406 8.258 36.129C8.258 34.4216 6.86858 33.0322 5.16123 33.0322C3.45387 33.0322 2.06445 34.4216 2.06445 36.129C2.06445 37.8364 3.45387 39.2258 5.16123 39.2258C5.90755 39.2258 6.58471 38.9491 7.11942 38.5084L12.449 41.7063C12.4087 41.9055 12.387 42.1109 12.387 42.3225C12.387 44.0299 13.7765 45.4193 15.4838 45.4193C17.1912 45.4193 18.5806 44.0299 18.5806 42.3225C18.5806 42.2813 18.5703 42.242 18.5682 42.2007L23.4921 40.2312C24.0598 40.8753 24.8815 41.2903 25.8064 41.2903C27.5137 41.2903 28.9032 39.9009 28.9032 38.1935C28.9032 36.4862 27.5137 35.0967 25.8064 35.0967ZM5.16123 37.1613C4.59245 37.1613 4.12897 36.6978 4.12897 36.129C4.12897 35.5602 4.59245 35.0967 5.16123 35.0967C5.73 35.0967 6.19349 35.5602 6.19349 36.129C6.19349 36.6978 5.73 37.1613 5.16123 37.1613ZM15.4838 43.3548C14.915 43.3548 14.4515 42.8913 14.4515 42.3225C14.4515 41.7538 14.915 41.2903 15.4838 41.2903C16.0526 41.2903 16.5161 41.7538 16.5161 42.3225C16.5161 42.8913 16.0526 43.3548 15.4838 43.3548ZM25.8064 39.2258C25.2376 39.2258 24.7741 38.7623 24.7741 38.1935C24.7741 37.6247 25.2376 37.1613 25.8064 37.1613C26.3752 37.1613 26.8386 37.6247 26.8386 38.1935C26.8386 38.7623 26.3752 39.2258 25.8064 39.2258Z" fill="black"/>
<path d="M28.9032 61.9352V43.3546H22.7097V61.9352H18.5806V47.4836H12.3871V61.9352H8.25806V41.29H2.06452V61.9352H0V63.9997H30.9677V61.9352H28.9032ZM6.19355 61.9352H4.12903V43.3546H6.19355V61.9352ZM16.5161 61.9352H14.4516V49.5481H16.5161V61.9352ZM26.8387 61.9352H24.7742V45.4191H26.8387V61.9352Z" fill="black"/>
<path d="M37.1612 14.4512H35.0967V16.5157H37.1612V14.4512Z" fill="black"/>
<path d="M24.7742 14.4512H22.7097V16.5157H24.7742V14.4512Z" fill="black"/>
</svg>
