<svg width="52" height="70" viewBox="0 0 52 70" fill="none" xmlns="http://www.w3.org/2000/svg">
<path d="M50.2662 0H1.73389C0.978926 0 0.366699 0.61209 0.366699 1.36719V68.6328C0.366699 69.3879 0.978926 70 1.73389 70H50.2663C51.0213 70 51.6335 69.3879 51.6335 68.6328V1.36719C51.6334 0.61209 51.0213 0 50.2662 0ZM48.8991 67.2656H27.3673V36.4321C27.3673 35.677 26.7551 35.0649 26.0001 35.0649C25.245 35.0649 24.6329 35.677 24.6329 36.4321V67.2656H3.10107V2.73438H48.8991V67.2656Z" fill="black"/>
<path d="M27.3396 31.6527C27.3218 31.5652 27.2957 31.4791 27.2615 31.3971C27.2274 31.315 27.185 31.2357 27.1358 31.1605C27.0867 31.0867 27.0293 31.017 26.9662 30.9527C26.6492 30.6355 26.1761 30.4906 25.733 30.5795C25.6455 30.5973 25.5594 30.6232 25.476 30.6574C25.3938 30.6916 25.3147 30.734 25.2408 30.7832C25.1655 30.8324 25.0958 30.8898 25.033 30.9527C24.9701 31.017 24.9127 31.0867 24.8621 31.1605C24.8129 31.2357 24.7705 31.315 24.7363 31.3971C24.7022 31.4791 24.6762 31.5652 24.6584 31.6527C24.6406 31.7416 24.6326 31.8305 24.6326 31.9207C24.6326 32.2803 24.7787 32.633 25.0332 32.8859C25.096 32.9502 25.1658 33.0062 25.241 33.0568C25.3148 33.106 25.394 33.1484 25.4761 33.1826C25.5595 33.2168 25.6457 33.2428 25.7332 33.2605C25.8207 33.2783 25.9109 33.2865 25.9998 33.2865C26.3593 33.2865 26.7121 33.1416 26.9662 32.8859C27.2205 32.633 27.3669 32.2803 27.3669 31.9207C27.3671 31.8305 27.3575 31.7416 27.3396 31.6527Z" fill="black"/>
<path d="M44.2628 5.95215H7.7373C6.98234 5.95215 6.37012 6.56424 6.37012 7.31934V27.8779C6.37012 28.633 6.98234 29.2451 7.7373 29.2451H44.2628C45.0178 29.2451 45.63 28.633 45.63 27.8779V7.31934C45.63 6.56424 45.0178 5.95215 44.2628 5.95215ZM15.8603 26.5107H9.10436V8.68652H22.5315L14.6977 15.9984C14.1457 16.5137 14.1158 17.3788 14.6311 17.9308C14.957 18.2798 15.4225 18.4194 15.8603 18.3452V26.5107ZM27.5662 26.5107H24.4341V23.4993C24.4341 22.6358 25.1367 21.9332 26.0001 21.9332C26.8636 21.9332 27.5662 22.6358 27.5662 23.4993V26.5107ZM33.4053 26.5107H30.3005V23.4993C30.3005 21.1281 28.3714 19.1988 26.0001 19.1988C23.6288 19.1988 21.6997 21.1279 21.6997 23.4993V26.5107H18.5948V16.1013L26.0001 9.18951L33.4053 16.1013V26.5107ZM42.8956 26.5107H36.1395V18.3449C36.2155 18.3577 36.2922 18.365 36.3691 18.365C36.7348 18.365 37.0997 18.2191 37.3689 17.9306C37.8841 17.3787 37.8543 16.5135 37.3023 15.9982L29.4686 8.68639H42.8958V26.5107H42.8956Z" fill="black"/>
<path d="M44.2625 30.8281H31.2852C30.5301 30.8281 29.918 31.4402 29.918 32.1953V45.1727C29.918 45.9278 30.5301 46.5398 31.2852 46.5398H44.2625C45.0175 46.5398 45.6297 45.9278 45.6297 45.1727V32.1953C45.6297 31.4402 45.0176 30.8281 44.2625 30.8281ZM32.6523 43.8055V33.5625H42.8953V43.8055H32.6523Z" fill="black"/>
<path d="M20.7144 30.8281H7.73706C6.9821 30.8281 6.36987 31.4402 6.36987 32.1953V45.1727C6.36987 45.9278 6.98196 46.5398 7.73706 46.5398H20.7144C21.4694 46.5398 22.0816 45.9278 22.0816 45.1727V32.1953C22.0816 31.4402 21.4695 30.8281 20.7144 30.8281ZM19.3472 43.8055H9.10425V33.5625H19.3472V43.8055Z" fill="black"/>
<path d="M44.2625 48.5439H31.2852C30.5301 48.5439 29.918 49.156 29.918 49.9111V62.8885C29.918 63.6436 30.5301 64.2557 31.2852 64.2557H44.2625C45.0175 64.2557 45.6297 63.6436 45.6297 62.8885V49.9111C45.6297 49.1562 45.0176 48.5439 44.2625 48.5439ZM32.6523 61.5213V51.2783H42.8953V61.5213H32.6523Z" fill="black"/>
<path d="M20.7144 48.5439H7.73706C6.9821 48.5439 6.36987 49.156 6.36987 49.9111V62.8885C6.36987 63.6436 6.98196 64.2557 7.73706 64.2557H20.7144C21.4694 64.2557 22.0816 63.6436 22.0816 62.8885V49.9111C22.0816 49.156 21.4695 48.5439 20.7144 48.5439ZM19.3472 61.5213H9.10425V51.2783H19.3472V61.5213Z" fill="black"/>
<path d="M16.5554 37.3176H15.6304V36.3926C15.6304 35.6375 15.0181 35.0254 14.2632 35.0254C13.5081 35.0254 12.896 35.6375 12.896 36.3926V37.3176H11.9709C11.216 37.3176 10.6038 37.9297 10.6038 38.6848C10.6038 39.4399 11.216 40.052 11.9709 40.052H12.896V40.9769C12.896 41.732 13.5081 42.3441 14.2632 42.3441C15.0181 42.3441 15.6304 41.732 15.6304 40.9769V40.052H16.5554C17.3105 40.052 17.9226 39.4399 17.9226 38.6848C17.9226 37.9297 17.3102 37.3176 16.5554 37.3176Z" fill="black"/>
<path d="M16.1963 56.4L16.8504 55.746C17.3846 55.2121 17.3846 54.3464 16.8507 53.8125C16.3166 53.2786 15.4512 53.2786 14.9171 53.8126L14.263 54.4667L13.6089 53.8126C13.075 53.2788 12.2096 53.2788 11.6753 53.8125C11.1414 54.3464 11.1414 55.2121 11.6753 55.746L12.3294 56.4L11.6753 57.0541C11.1414 57.588 11.1414 58.4537 11.6753 58.9876C11.9423 59.2546 12.2922 59.388 12.6421 59.388C12.9919 59.388 13.3418 59.2545 13.6088 58.9876L14.2629 58.3335L14.9169 58.9876C15.1839 59.2546 15.5338 59.388 15.8837 59.388C16.2335 59.388 16.5834 59.2545 16.8504 58.9876C17.3843 58.4537 17.3843 57.588 16.8504 57.0541L16.1963 56.4Z" fill="black"/>
<path d="M40.0286 37.3174H35.4443C34.6894 37.3174 34.0771 37.9295 34.0771 38.6846C34.0771 39.4397 34.6894 40.0518 35.4443 40.0518H40.0286C40.7836 40.0518 41.3958 39.4397 41.3958 38.6846C41.3958 37.9295 40.7836 37.3174 40.0286 37.3174Z" fill="black"/>
<path d="M40.0286 53.0273H35.4443C34.6894 53.0273 34.0771 53.6394 34.0771 54.3945C34.0771 55.1496 34.6894 55.7617 35.4443 55.7617H40.0286C40.7836 55.7617 41.3958 55.1496 41.3958 54.3945C41.3958 53.6394 40.7836 53.0273 40.0286 53.0273Z" fill="black"/>
<path d="M40.0286 57.0381H35.4443C34.6894 57.0381 34.0771 57.6502 34.0771 58.4053C34.0771 59.1604 34.6894 59.7725 35.4443 59.7725H40.0286C40.7836 59.7725 41.3958 59.1604 41.3958 58.4053C41.3958 57.6502 40.7836 57.0381 40.0286 57.0381Z" fill="black"/>
</svg>
