<svg width="81" height="81" viewBox="0 0 81 81" fill="none" xmlns="http://www.w3.org/2000/svg">
<path d="M73.1549 25.0319L80.2492 17.9377L63.0625 0.750977L54.7331 9.08038L47.2019 10.7537C44.5843 11.3367 42.1961 12.6487 40.2998 14.5449L35.7808 19.0639C34.3907 20.454 33.5938 22.3785 33.5938 24.3439C33.5938 25.2216 33.7603 26.089 34.0614 26.9064H31.0312V39.1167L26.5405 35.9969C23.8998 34.1621 20.2252 34.1621 17.5858 35.9969L1.91613 46.8824C0.892406 47.5935 0.28125 48.762 0.28125 50.0074C0.28125 52.106 1.98787 53.8127 4.08656 53.8127H5.40625V78.1564H2.84375V80.7189H41.2812V78.1564H38.7188V75.5939H63.5929L74.5938 64.5931V26.9064H72.5476L73.1549 25.0319ZM37.5925 20.8756L42.1115 16.3566C43.6631 14.805 45.6157 13.7326 47.758 13.256L56.0169 11.4199L63.0625 4.37435L76.6258 17.9377L70.9076 23.6559L69.8544 26.9064H46.9367L44.3742 24.3439H47.5056C51.2699 24.3439 54.8087 22.8769 57.4711 20.2157L59.484 18.2029L57.6723 16.3912L55.6594 18.404C53.4813 20.5809 50.5857 21.7814 47.5056 21.7814H43.3133L40.7508 24.3439L49.5645 33.1576C50.0002 33.5945 50.25 34.1967 50.25 34.8143C50.25 36.1058 49.1994 37.1564 47.9066 37.1564C47.2813 37.1564 46.692 36.913 46.2499 36.4709L37.5925 27.8123C36.6803 26.8987 36.1562 25.6354 36.1562 24.3439C36.1562 23.0524 36.6803 21.7891 37.5925 20.8756ZM33.5938 29.4689H35.6412C35.6886 29.5202 35.7322 29.5753 35.7808 29.6239L44.4395 38.2826C45.3659 39.209 46.5972 39.7189 47.9066 39.7189C50.6126 39.7189 52.8125 37.5177 52.8125 34.8143C52.8125 33.5036 52.3026 32.2723 51.3749 31.3459L49.4992 29.4689H72.0312V62.7814H69.4688V57.6564H46.4062V70.4689H61.7812V73.0314H33.5938V29.4689ZM66.9062 62.7814H61.7812V67.9064H48.9688V60.2189H66.9062V62.7814ZM64.3438 65.3439H70.2196L64.3438 71.2197V65.3439ZM4.08656 51.2502C3.40109 51.2502 2.84375 50.6928 2.84375 50.0074C2.84375 49.6012 3.04363 49.2194 3.37803 48.9862L19.0477 38.1007C20.8261 36.8643 23.2989 36.8643 25.0786 38.1007L31.0312 42.2366V46.2879L25.1324 41.9983C23.3361 40.6914 20.7889 40.6914 18.9913 41.9983L6.59781 51.0119C6.38384 51.1682 6.13016 51.2502 5.86622 51.2502H5.40625H4.08656ZM25.9062 78.1564H18.2188V65.3439H25.9062V78.1564ZM36.1562 78.1564H28.4688V62.7814H15.6562V78.1564H7.96875V53.1682C8.01359 53.1387 8.061 53.1157 8.10456 53.0849L20.4981 44.0713C21.4142 43.4076 22.7108 43.4076 23.6256 44.0713L31.0312 49.4564V75.5939H36.1562V78.1564Z" fill="black"/>
<path d="M22.0625 47.4062C19.2361 47.4062 16.9375 49.7048 16.9375 52.5312C16.9375 55.3577 19.2361 57.6562 22.0625 57.6562C24.8889 57.6562 27.1875 55.3577 27.1875 52.5312C27.1875 49.7048 24.8889 47.4062 22.0625 47.4062ZM22.0625 55.0938C20.6493 55.0938 19.5 53.9445 19.5 52.5312C19.5 51.118 20.6493 49.9688 22.0625 49.9688C23.4757 49.9688 24.625 51.118 24.625 52.5312C24.625 53.9445 23.4757 55.0938 22.0625 55.0938Z" fill="black"/>
<path d="M56.6562 32.0312H69.4688V34.5938H56.6562V32.0312Z" fill="black"/>
<path d="M56.6562 37.1562H69.4688V39.7188H56.6562V37.1562Z" fill="black"/>
<path d="M46.4062 42.2812H69.4688V44.8438H46.4062V42.2812Z" fill="black"/>
<path d="M46.4062 47.4062H69.4688V49.9688H46.4062V47.4062Z" fill="black"/>
<path d="M66.9062 52.5312H69.4688V55.0938H66.9062V52.5312Z" fill="black"/>
<path d="M61.7812 52.5312H64.3438V55.0938H61.7812V52.5312Z" fill="black"/>
<path d="M46.4062 52.5312H59.2188V55.0938H46.4062V52.5312Z" fill="black"/>
<path d="M40 57.6562C40.706 57.6562 41.2812 58.2302 41.2812 58.9375H43.8438C43.8438 57.2693 42.7688 55.8599 41.2812 55.3295V52.5312H38.7188V55.0938H36.1562V58.9375C36.1562 61.0567 37.8808 62.7812 40 62.7812C40.706 62.7812 41.2812 63.3553 41.2812 64.0625V65.3438H40C39.294 65.3438 38.7188 64.7697 38.7188 64.0625H36.1562C36.1562 65.7307 37.2312 67.1401 38.7188 67.6705V70.4688H41.2812V67.9062H43.8438V64.0625C43.8438 61.9433 42.1192 60.2188 40 60.2188C39.294 60.2188 38.7188 59.6448 38.7188 58.9375V57.6562H40Z" fill="black"/>
</svg>
