<svg width="68" height="66" viewBox="0 0 68 66" fill="none" xmlns="http://www.w3.org/2000/svg">
<path d="M18.1906 41.797C18.8256 41.4307 19.043 40.6178 18.6767 39.9828C18.3099 39.3483 17.4975 39.1304 16.8625 39.4966C16.2275 39.8634 16.0096 40.6764 16.3764 41.3109C16.7426 41.9459 17.5556 42.1638 18.1906 41.797Z" fill="black"/>
<path d="M12.7479 50.9636L19.4363 62.5489C20.8796 65.0515 24.1262 65.9781 26.6937 64.4938C29.2343 63.0256 30.1074 59.7795 28.6377 57.2369L24.6533 50.3348L28.1038 48.3426C28.7388 47.9753 28.9567 47.1634 28.5899 46.5284L26.8629 43.537C27.0688 43.497 28.4229 43.2314 52.3016 38.5471C55.2536 38.3868 57.0222 35.1584 55.5312 32.5773L51.1172 24.9323L53.9379 20.66C54.215 20.2398 54.2316 19.6997 53.98 19.2639L51.3237 14.6632C51.0721 14.2274 50.5943 13.9722 50.0936 14.0017L44.984 14.3083L40.0839 5.8208C39.3742 4.59125 38.1026 3.84677 36.6832 3.82913C36.6661 3.82861 36.6495 3.82861 36.6324 3.82861C35.2607 3.82861 34.0155 4.51135 33.2778 5.66568L15.9281 27.7675L4.64893 34.2795C0.212686 36.8398 -1.324 42.531 1.24613 46.9792C3.59422 51.0466 8.5446 52.6465 12.7479 50.9636ZM26.3378 58.5655C27.0714 59.8345 26.6372 61.4583 25.3646 62.1935C24.0878 62.9317 22.4619 62.4783 21.7366 61.2213L15.096 49.7179L19.6967 47.0617C27.3822 60.3751 26.2144 58.3523 26.3378 58.5655ZM23.3252 48.0339L21.997 45.7336L24.2974 44.4054L25.6255 46.7058L23.3252 48.0339ZM49.4337 16.7021L51.2692 19.8813L49.6324 22.3601L46.4688 16.88L49.4337 16.7021ZM35.4993 7.12195C35.8557 6.53882 36.4212 6.47864 36.6505 6.48486C36.8772 6.48746 37.4422 6.55801 37.7831 7.14841L53.2308 33.9055C53.7341 34.7765 53.1224 35.8717 52.1133 35.8966C51.9323 35.9008 51.8487 35.9334 51.3849 36.0201L35.0443 7.71701C35.3872 7.27603 35.4313 7.23349 35.4993 7.12195ZM33.2768 9.9686L48.6296 36.5607L25.459 41.1053L18.4137 28.9027L33.2768 9.9686ZM3.54649 45.6511C2.96336 44.642 2.65519 43.4965 2.65519 42.3375C2.65519 39.9687 3.92832 37.7627 5.97706 36.5799L16.3287 30.6033L22.9693 42.1051L12.6177 48.0822C9.44627 49.9125 5.37733 48.822 3.54649 45.6511Z" fill="black"/>
<path d="M14.0763 42.6389C13.7095 42.0038 12.897 41.7859 12.262 42.1527L9.96167 43.4809C9.3277 43.8471 8.5137 43.6287 8.14743 42.9948C7.78064 42.3597 6.9682 42.1418 6.33319 42.5086C5.69818 42.8754 5.48028 43.6879 5.84707 44.3229C6.94018 46.2165 9.37854 46.8842 11.2898 45.7812L13.5901 44.4531C14.2252 44.0863 14.4431 43.2744 14.0763 42.6389Z" fill="black"/>
<path d="M66.0256 6.66949L58.6249 10.7877C57.9842 11.1446 57.7534 11.9535 58.1103 12.5942C58.4662 13.2344 59.2745 13.4663 59.9168 13.1088L67.3169 8.9906C67.9581 8.63366 68.1885 7.82485 67.8315 7.18414C67.4751 6.5429 66.6663 6.31256 66.0256 6.66949Z" fill="black"/>
<path d="M65.2503 20.4248L60.1188 19.05C59.4101 18.8601 58.6817 19.2804 58.4919 19.989C58.302 20.6977 58.7227 21.4256 59.4314 21.6155L64.5634 22.9903C65.2762 23.1817 66.001 22.7548 66.1898 22.0513C66.3797 21.3426 65.9589 20.6142 65.2503 20.4248Z" fill="black"/>
<path d="M52.3546 1.84402L50.9782 6.97597C50.7884 7.68465 51.2086 8.41253 51.9173 8.60292C52.6254 8.79229 53.3538 8.3731 53.5442 7.6639L54.9201 2.53194C55.1099 1.82326 54.6897 1.09487 53.981 0.90499C53.2729 0.71511 52.5445 1.13534 52.3546 1.84402Z" fill="black"/>
</svg>
