<svg width="23" height="23" viewBox="0 0 23 23" fill="none" xmlns="http://www.w3.org/2000/svg">
<path d="M22.2653 20.9494L16.7913 15.2561C18.1988 13.5829 18.9699 11.4778 18.9699 9.28624C18.9699 4.16589 14.8041 0 9.6837 0C4.56335 0 0.397461 4.16589 0.397461 9.28624C0.397461 14.4066 4.56335 18.5725 9.6837 18.5725C11.606 18.5725 13.4378 17.9927 15.0039 16.8921L20.5195 22.6286C20.7501 22.868 21.0602 23 21.3924 23C21.707 23 22.0053 22.8801 22.2318 22.6621C22.7131 22.199 22.7284 21.431 22.2653 20.9494ZM9.6837 2.4225C13.4684 2.4225 16.5474 5.50149 16.5474 9.28624C16.5474 13.071 13.4684 16.15 9.6837 16.15C5.89895 16.15 2.81996 13.071 2.81996 9.28624C2.81996 5.50149 5.89895 2.4225 9.6837 2.4225Z" fill="white"/>
</svg>
