<svg width="81" height="71" viewBox="0 0 81 71" fill="none" xmlns="http://www.w3.org/2000/svg">
<path d="M45.8594 70H0.8125V63.2969L18.8594 45.1562C24.3594 39.5938 27.9844 35.625 29.7344 33.25C31.4844 30.875 32.7969 28.5625 33.6719 26.3125C34.5469 24.0625 34.9844 21.6406 34.9844 19.0469C34.9844 15.3906 33.875 12.5 31.6562 10.375C29.4375 8.21875 26.3594 7.14062 22.4219 7.14062C19.5781 7.14062 16.875 7.60938 14.3125 8.54688C11.7812 9.48438 8.95312 11.1875 5.82812 13.6562L1.70312 8.35938C8.01562 3.10938 14.8906 0.484375 22.3281 0.484375C28.7656 0.484375 33.8125 2.14062 37.4688 5.45312C41.125 8.73438 42.9531 13.1562 42.9531 18.7188C42.9531 23.0625 41.7344 27.3594 39.2969 31.6094C36.8594 35.8594 32.2969 41.2344 25.6094 47.7344L10.6094 62.4062V62.7812H45.8594V70ZM66.2305 70H59.8705V69.064C60.0785 68.952 60.2785 68.856 60.4705 68.776C60.6785 68.68 60.9185 68.584 61.1905 68.488V62.848C61.1905 61.84 61.0465 61.056 60.7585 60.496C60.4705 59.92 59.9585 59.632 59.2225 59.632C58.6145 59.632 58.0865 59.832 57.6385 60.232C57.2065 60.616 56.8785 61.144 56.6545 61.816V68.488C56.9105 68.552 57.1345 68.632 57.3265 68.728C57.5345 68.808 57.7505 68.92 57.9745 69.064V70H51.6145V69.064C52.0145 68.856 52.5425 68.664 53.1985 68.488V59.704L51.6145 59.512V58.576C51.8225 58.48 52.0945 58.392 52.4305 58.312C52.7665 58.216 53.1265 58.128 53.5105 58.048C53.9105 57.968 54.3105 57.904 54.7105 57.856C55.1265 57.792 55.5025 57.744 55.8385 57.712H56.6545V60.184H56.6785C57.0145 59.512 57.5185 58.936 58.1905 58.456C58.8625 57.96 59.6785 57.712 60.6385 57.712C61.2625 57.712 61.8225 57.792 62.3185 57.952C62.8145 58.096 63.2305 58.36 63.5665 58.744C63.9185 59.128 64.1825 59.648 64.3585 60.304C64.5505 60.944 64.6465 61.76 64.6465 62.752V68.488C65.2865 68.6 65.8145 68.792 66.2305 69.064V70ZM75.4358 67.624C75.3558 67.976 75.2118 68.312 75.0038 68.632C74.7958 68.952 74.5478 69.24 74.2598 69.496C73.9718 69.736 73.6438 69.928 73.2758 70.072C72.9078 70.216 72.5158 70.288 72.0998 70.288C70.5158 70.288 69.3078 69.792 68.4758 68.8C67.6598 67.792 67.2518 66.256 67.2518 64.192C67.2518 63.136 67.3958 62.216 67.6838 61.432C67.9718 60.632 68.3718 59.96 68.8838 59.416C69.4118 58.872 70.0438 58.464 70.7798 58.192C71.5158 57.92 72.3318 57.784 73.2278 57.784C73.5158 57.784 73.7558 57.792 73.9478 57.808C74.1558 57.824 74.3398 57.848 74.4998 57.88C74.6758 57.896 74.8358 57.936 74.9798 58C75.1398 58.048 75.3158 58.104 75.5078 58.168V53.944L73.6838 53.752V52.816C73.9078 52.72 74.2118 52.632 74.5958 52.552C74.9958 52.472 75.4118 52.4 75.8438 52.336C76.2758 52.256 76.6998 52.184 77.1158 52.12C77.5318 52.056 77.8758 52 78.1478 51.952H78.9638V68.296L80.5478 68.488V69.328C80.3238 69.44 80.0358 69.544 79.6838 69.64C79.3318 69.736 78.9638 69.824 78.5798 69.904C78.1958 69.984 77.8198 70.048 77.4518 70.096C77.0998 70.16 76.8038 70.208 76.5638 70.24H75.7478L75.5318 67.624H75.4358ZM73.2518 68.368C73.8118 68.368 74.2838 68.192 74.6678 67.84C75.0518 67.488 75.3318 66.888 75.5078 66.04V59.584C75.2998 59.456 75.0358 59.352 74.7158 59.272C74.4118 59.192 74.0278 59.152 73.5638 59.152C72.6358 59.152 71.9718 59.576 71.5718 60.424C71.1718 61.256 70.9718 62.472 70.9718 64.072C70.9718 65.368 71.1478 66.408 71.4998 67.192C71.8518 67.976 72.4358 68.368 73.2518 68.368Z" fill="black"/>
</svg>
