<svg width="29" height="25" viewBox="0 0 29 25" fill="none" xmlns="http://www.w3.org/2000/svg">
<path d="M29 3.50819C27.9216 3.98125 26.7724 4.29481 25.5744 4.44706C26.8069 3.71119 27.7476 2.55481 28.1898 1.161C27.0407 1.84612 25.7719 2.33006 24.4198 2.60013C23.3287 1.43831 21.7736 0.71875 20.0771 0.71875C16.7856 0.71875 14.1357 3.39038 14.1357 6.66556C14.1357 7.13681 14.1756 7.58994 14.2734 8.02131C9.33075 7.78025 4.95719 5.41131 2.01912 1.80263C1.50619 2.69256 1.20531 3.71119 1.20531 4.80775C1.20531 6.86675 2.26562 8.69194 3.84612 9.74862C2.89094 9.7305 1.95387 9.45319 1.16 9.01638C1.16 9.0345 1.16 9.05806 1.16 9.08162C1.16 11.9707 3.22081 14.3705 5.92325 14.9233C5.43931 15.0556 4.91187 15.1191 4.3645 15.1191C3.98388 15.1191 3.59962 15.0973 3.23894 15.0176C4.00925 17.372 6.19513 19.1029 8.79425 19.1591C6.7715 20.7414 4.20319 21.6948 1.42281 21.6948C0.93525 21.6948 0.467625 21.6731 0 21.6133C2.63356 23.3116 5.75469 24.2812 9.1205 24.2812C20.0607 24.2812 26.042 15.2188 26.042 7.36337C26.042 7.10056 26.0329 6.84681 26.0203 6.59488C27.2002 5.7575 28.1916 4.71169 29 3.50819Z" fill="white"/>
</svg>
